<?xml version="1.0" encoding="UTF-8"?>
<svg id="Layer_1" data-name="Layer 1" xmlns="http://www.w3.org/2000/svg" viewBox="0 0 256 179.2">
  <defs>
    <style>
      .cls-1 {
        fill: #eaf0ff;
        fill-rule: evenodd;
      }
    </style>
  </defs>
  <g id="SVGRepo_iconCarrier" data-name="SVGRepo iconCarrier">
    <g id="Page-1">
      <g id="Dribbble-Light-Preview">
        <g id="icons">
          <path id="radio_signal-_eaf0ff1026_" data-name="radio_signal-[#eaf0ff1026]" class="cls-1" d="M146.34,72.17c-.29-.33-.51-.69-.83-1.01l-.05.04c-10-9.83-27.14-8.91-36.19-.01s-9.02,26.66.03,35.55c.12.11.26.19.37.3.31.32.52.69.84,1.01l.04-.05c10,9.83,27.14,8.92,36.19.01,9.05-8.89,9.02-26.66-.03-35.55-.12-.11-.26-.18-.37-.29M91.13,53.38l-18.1-17.8c-27.15,26.69-25.88,81.37,1.27,108.05l18.1-17.79c-18.1-17.79-19.37-54.67-1.27-72.46M54.93,17.79L36.83,0c-54.31,53.38-43.99,134.73,1.27,179.2l18.1-17.79c-36.2-35.58-37.47-108.04-1.27-143.63M181.7,35.58l-18.1,17.8c18.1,17.79,19.37,54.67,1.27,72.46l18.1,17.79c27.15-26.68,25.88-81.36-1.27-108.05M219.17,179.2l-18.1-17.79c36.21-35.58,34.94-108.04-1.27-143.63L217.9,0c45.26,44.48,55.58,125.84,1.27,179.2"/>
        </g>
      </g>
    </g>
  </g>
</svg>