<?xml version="1.0" encoding="utf-8"?>
<!-- Generator: Adobe Illustrator 27.5.0, SVG Export Plug-In . SVG Version: 6.00 Build 0)  -->
<svg version="1.1" id="_x30_" xmlns="http://www.w3.org/2000/svg" xmlns:xlink="http://www.w3.org/1999/xlink" x="0px" y="0px"
	 viewBox="0 0 800 500" style="enable-background:new 0 0 800 500;" xml:space="preserve">
<g>
	<defs>
		<rect id="SVGID_1_" x="0.003" y="0.001" width="800" height="500"/>
	</defs>
	<use xlink:href="#SVGID_1_"  style="overflow:visible;fill:#FE00FE;"/>
	<clipPath id="SVGID_00000057867283734771158040000012362514248886366378_">
		<use xlink:href="#SVGID_1_"  style="overflow:visible;"/>
	</clipPath>
	<path style="clip-path:url(#SVGID_00000057867283734771158040000012362514248886366378_);fill:#FFFFFF;" d="M740.763-0.909h-67.375
		h-67.376h-67.375h-67.375h-67.375h-67.375h-67.375h-67.375h-67.375H67.012H-0.362v67.375v67.375v67.375v67.375v67.375v67.375
		v67.376v67.375h67.375h67.375h67.375h67.375h67.375h67.375h67.375h67.375h67.375h67.376h67.375h67.375v-67.375v-67.376v-67.375
		v-67.375v-67.375v-67.375V66.466V-0.909H740.763z M741.174-0.497h66.551v66.551h-66.551V-0.497z M673.799-0.497h66.552v66.551
		h-66.552V-0.497z M740.351,470.305h-66.552v-66.552h66.552V470.305z M672.976,470.305h-66.552v-66.552h66.552V470.305z
		 M605.601,470.305h-66.552v-66.552h66.552V470.305z M538.226,470.305h-66.551v-66.552h66.551V470.305z M470.851,470.305h-66.552
		v-66.552h66.552V470.305z M403.476,470.305h-66.552v-66.552h66.552V470.305z M336.101,470.305h-66.552v-66.552h66.552V470.305z
		 M268.726,470.305h-66.551v-66.552h66.551V470.305z M201.351,470.305h-66.552v-66.552h66.552V470.305z M133.976,470.305H67.424
		v-66.552h66.552V470.305z M67.424,66.878h66.552v66.552H67.424V66.878z M134.799,66.878h66.552v66.552h-66.552V66.878z
		 M202.174,66.878h66.551v66.552h-66.551V66.878z M269.549,66.878h66.552v66.552h-66.552V66.878z M336.924,66.878h66.552v66.552
		h-66.552V66.878z M404.299,66.878h66.552v66.552h-66.552V66.878z M471.674,66.878h66.551v66.552h-66.551V66.878z M539.049,66.878
		h66.552v66.552h-66.552V66.878z M606.424,66.878h66.552v66.552h-66.552V66.878z M672.976,336.378v66.551h-66.552v-66.551H672.976z
		 M605.601,336.378v66.551h-66.552v-66.551H605.601z M538.226,336.378v66.551h-66.551v-66.551H538.226z M470.851,336.378v66.551
		h-66.552v-66.551H470.851z M403.476,336.378v66.551h-66.552v-66.551H403.476z M336.101,336.378v66.551h-66.552v-66.551H336.101z
		 M268.726,336.378v66.551h-66.551v-66.551H268.726z M201.351,336.378v66.551h-66.552v-66.551H201.351z M134.799,200.805v-66.552
		h66.552v66.552H134.799z M202.174,200.805v-66.552h66.551v66.552H202.174z M269.549,200.805v-66.552h66.552v66.552H269.549z
		 M336.924,200.805v-66.552h66.552v66.552H336.924z M404.299,200.805v-66.552h66.552v66.552H404.299z M471.674,200.805v-66.552
		h66.551v66.552H471.674z M539.049,200.805v-66.552h66.552v66.552H539.049z M605.601,269.003v66.552h-66.552v-66.552H605.601z
		 M538.226,269.003v66.552h-66.551v-66.552H538.226z M470.851,269.003v66.552h-66.552v-66.552H470.851z M403.476,269.003v66.552
		h-66.552v-66.552H403.476z M336.101,269.003v66.552h-66.552v-66.552H336.101z M268.726,269.003v66.552h-66.551v-66.552H268.726z
		 M202.174,268.179v-66.551h66.551v66.551H202.174z M269.549,268.179v-66.551h66.552v66.551H269.549z M336.924,268.179v-66.551
		h66.552v66.551H336.924z M404.299,268.179v-66.551h66.552v66.551H404.299z M471.674,268.179v-66.551h66.551v66.551H471.674z
		 M605.601,268.179h-66.552v-66.551h66.552V268.179z M134.799,201.628h66.552v66.551h-66.552V201.628z M134.799,269.003h66.552
		v66.552h-66.552V269.003z M672.976,335.554h-66.552v-66.552h66.552V335.554z M672.976,268.179h-66.552v-66.551h66.552V268.179z
		 M672.976,200.805h-66.552v-66.552h66.552V200.805z M67.424,134.253h66.552v66.552H67.424V134.253z M67.424,201.628h66.552v66.551
		H67.424V201.628z M67.424,269.003h66.552v66.552H67.424V269.003z M67.424,336.378h66.552v66.551H67.424V336.378z M740.351,402.929
		h-66.552v-66.551h66.552V402.929z M740.351,335.554h-66.552v-66.552h66.552V335.554z M740.351,268.179h-66.552v-66.551h66.552
		V268.179z M740.351,200.805h-66.552v-66.552h66.552V200.805z M740.351,133.429h-66.552V66.878h66.552V133.429z M606.424-0.497
		h66.552v66.551h-66.552V-0.497z M539.049-0.497h66.552v66.551h-66.552V-0.497z M471.674-0.497h66.551v66.551h-66.551V-0.497z
		 M404.299-0.497h66.552v66.551h-66.552V-0.497z M336.924-0.497h66.552v66.551h-66.552V-0.497z M269.549-0.497h66.552v66.551
		h-66.552V-0.497z M202.174-0.497h66.551v66.551h-66.551V-0.497z M134.799-0.497h66.552v66.551h-66.552V-0.497z M67.424-0.497
		h66.552v66.551H67.424V-0.497z M0.049-0.497h66.551v66.551H0.049V-0.497z M66.601,66.878v66.552H0.049V66.878H66.601z
		 M66.601,134.253v66.552H0.049v-66.552H66.601z M66.601,201.628v66.551H0.049v-66.551H66.601z M66.601,269.003v66.552H0.049
		v-66.552H66.601z M66.601,336.378v66.551H0.049v-66.551H66.601z M66.601,403.752v66.552H0.049v-66.552H66.601z M66.601,537.679
		H0.049v-66.551h66.551V537.679z M133.976,537.679H67.424v-66.551h66.552V537.679z M201.351,537.679h-66.552v-66.551h66.552V537.679
		z M268.726,537.679h-66.551v-66.551h66.551V537.679z M336.101,537.679h-66.552v-66.551h66.552V537.679z M403.476,537.679h-66.552
		v-66.551h66.552V537.679z M470.851,537.679h-66.552v-66.551h66.552V537.679z M538.226,537.679h-66.551v-66.551h66.551V537.679z
		 M605.601,537.679h-66.552v-66.551h66.552V537.679z M672.976,537.679h-66.552v-66.551h66.552V537.679z M740.351,537.679h-66.552
		v-66.551h66.552V537.679z M807.726,537.679h-66.551v-66.551h66.551V537.679z M741.174,470.305v-66.552h66.551v66.552H741.174z
		 M741.174,402.929v-66.551h66.551v66.551H741.174z M741.174,335.554v-66.552h66.551v66.552H741.174z M741.174,268.179v-66.551
		h66.551v66.551H741.174z M741.174,200.805v-66.552h66.551v66.552H741.174z M741.174,133.429V66.878h66.551v66.552H741.174z"/>
</g>
<g>
	<rect x="438.869" y="98.388" style="fill:#1C1C1C;" width="58.837" height="15.377"/>
	<rect x="438.869" y="98.388" style="fill:#1C1C1C;" width="58.837" height="15.377"/>
	<g>
		<path style="fill:#1C1C1C;" d="M231.5,396.175H41.84c-2.572,0-4.657-2.085-4.657-4.657v-20.939c0-2.572,2.085-4.657,4.657-4.657
			H231.5c2.572,0,4.657,2.085,4.657,4.657v20.939C236.157,394.09,234.072,396.175,231.5,396.175z"/>
		<path style="fill:#FE00FE;" d="M225.073,390.326H35.412c-2.572,0-4.657-2.085-4.657-4.657V364.73c0-2.572,2.085-4.657,4.657-4.657
			h189.661c2.572,0,4.657,2.085,4.657,4.657v20.939C229.73,388.241,227.645,390.326,225.073,390.326z"/>
		<polygon style="fill:#1C1C1C;" points="34.113,375.2 39.028,379.62 39.028,370.779 		"/>
		<polygon style="fill:#1C1C1C;" points="222.69,375.2 217.776,379.62 217.776,370.779 		"/>
		<path style="fill:#1C1C1C;" d="M225.073,391.326H35.412c-3.119,0-5.656-2.538-5.656-5.657V364.73c0-3.119,2.538-5.657,5.656-5.657
			h189.661c3.119,0,5.657,2.538,5.657,5.657v20.938C230.729,388.788,228.192,391.326,225.073,391.326z M35.412,361.073
			c-2.016,0-3.656,1.641-3.656,3.657v20.938c0,2.017,1.64,3.657,3.656,3.657h189.661c2.016,0,3.657-1.641,3.657-3.657V364.73
			c0-2.017-1.641-3.657-3.657-3.657H35.412z"/>
		<g>
			<g>
				<path style="fill:#1C1C1C;" d="M207.636,380.687H49.167c-2.958,0-5.356-2.398-5.356-5.356c0-2.958,2.398-5.356,5.356-5.356
					h158.47c2.958,0,5.357,2.398,5.357,5.356C212.993,378.288,210.594,380.687,207.636,380.687z"/>
			</g>
			<g>
				<path style="fill:#FE00FE;" d="M181.594,381.472h-53.597c-2.875,0-5.205-2.331-5.205-5.206v-2.215
					c0-2.875,2.331-5.206,5.205-5.206h53.597c2.875,0,5.205,2.331,5.205,5.206v2.215C186.8,379.142,184.469,381.472,181.594,381.472
					z"/>
				<polygon style="fill:#1C1C1C;" points="125.476,375.075 128.791,377.743 128.791,372.406 				"/>
				<polygon style="fill:#1C1C1C;" points="184.223,375.075 180.908,377.743 180.908,372.406 				"/>
				<path style="fill:#1C1C1C;" d="M181.594,382.291h-53.597c-3.322,0-6.024-2.702-6.024-6.024v-2.215
					c0-3.322,2.702-6.024,6.024-6.024h53.597c3.322,0,6.024,2.702,6.024,6.024v2.215
					C187.618,379.589,184.916,382.291,181.594,382.291z M127.998,369.664c-2.419,0-4.387,1.969-4.387,4.388v2.215
					c0,2.419,1.968,4.388,4.387,4.388h53.597c2.419,0,4.387-1.969,4.387-4.388v-2.215c0-2.419-1.968-4.388-4.387-4.388H127.998z"/>
			</g>
		</g>
	</g>
	<g>
		<path style="fill:#1C1C1C;" d="M231.5,451.426H41.84c-2.572,0-4.657-2.085-4.657-4.657V425.83c0-2.572,2.085-4.657,4.657-4.657
			H231.5c2.572,0,4.657,2.085,4.657,4.657v20.939C236.157,449.341,234.072,451.426,231.5,451.426z"/>
		<path style="fill:#1C1C1C;" d="M225.239,445.328H35.578c-2.572,0-4.657-2.085-4.657-4.657v-20.939
			c0-2.572,2.085-4.657,4.657-4.657h189.661c2.572,0,4.657,2.085,4.657,4.657v20.939
			C229.896,443.244,227.811,445.328,225.239,445.328z"/>
		<path style="fill:#FE00FE;" d="M53.443,436.025l-3.011-3.006c0.525-0.944,0.826-2.028,0.826-3.183
			c0-3.624-2.948-6.572-6.572-6.572c-3.624,0-6.572,2.948-6.572,6.572c0,3.624,2.948,6.572,6.572,6.572
			c0.973,0,1.895-0.218,2.726-0.6l3.121,3.126c0.799,0.799,2.111,0.799,2.909,0c0.399-0.4,0.599-0.925,0.599-1.458
			C54.043,436.95,53.843,436.424,53.443,436.025z M40.708,429.835c0-2.194,1.785-3.978,3.978-3.978c2.194,0,3.978,1.785,3.978,3.978
			c0,2.194-1.785,3.978-3.978,3.978C42.493,433.814,40.708,432.029,40.708,429.835z"/>
		<path style="fill:#FE00FE;" d="M225.073,415.325H61.599v30.253h163.474c2.572,0,4.657-2.085,4.657-4.657v-20.939
			C229.73,417.41,227.645,415.325,225.073,415.325z"/>
		<path style="fill:#1C1C1C;" d="M225.073,446.577H35.412c-3.119,0-5.656-2.537-5.656-5.656v-20.939
			c0-3.119,2.538-5.656,5.656-5.656h189.661c3.119,0,5.657,2.537,5.657,5.656v20.939
			C230.729,444.04,228.192,446.577,225.073,446.577z M35.412,416.325c-2.016,0-3.656,1.641-3.656,3.656v20.939
			c0,2.016,1.64,3.656,3.656,3.656h189.661c2.016,0,3.657-1.641,3.657-3.656v-20.939c0-2.016-1.641-3.656-3.657-3.656H35.412z"/>
		<rect x="60.599" y="415.325" style="fill:#1C1C1C;" width="2" height="30.252"/>
	</g>
	<g>
		<g>
			<path style="fill:#1C1C1C;" d="M303.612,319.018H41.84c-2.572,0-4.657-2.085-4.657-4.657V41.946c0-2.572,2.085-4.657,4.657-4.657
				h261.773c2.572,0,4.657,2.085,4.657,4.657v272.416C308.269,316.933,306.184,319.018,303.612,319.018z"/>
			<path style="fill:#1C1C1C;" d="M297.185,313.169H35.412c-2.572,0-4.657-2.085-4.657-4.657V36.097
				c0-2.572,2.085-4.657,4.657-4.657h261.773c2.572,0,4.657,2.085,4.657,4.657v272.416
				C301.842,311.084,299.757,313.169,297.185,313.169z"/>
			<path style="fill:#1C1C1C;" d="M295.861,309.923H36.736c-1.462,0-2.647-1.185-2.647-2.647V58.059
				c0-1.462,1.185-2.647,2.647-2.647h259.125c1.462,0,2.647,1.185,2.647,2.647v249.216
				C298.509,308.737,297.324,309.923,295.861,309.923z"/>
			<path style="fill:#FE00FE;" d="M36.736,55.412c-1.462,0-2.647,1.185-2.647,2.647v249.216c0,1.462,1.185,2.647,2.647,2.647h93.682
				V55.412H36.736z"/>
			<path style="fill:#FE00FE;" d="M298.509,58.497c0-1.704-1.381-3.085-3.085-3.085H37.174c-1.704,0-3.085,1.381-3.085,3.085V82.43
				h264.42V58.497z"/>
			<g>
				<path style="fill:#FE00FE;" d="M298.519,58.059v249.218c0,1.464-1.185,2.642-2.65,2.642h-4.492V55.41h4.492
					C297.334,55.41,298.519,56.595,298.519,58.059z"/>
				<g>
					<rect x="291.378" y="101.812" style="fill:#FFA500;" width="7.141" height="22.723"/>
					<path style="fill:#1C1C1C;" d="M299.02,125.035h-8.142v-23.723h8.142V125.035z M291.878,124.035h6.142v-21.723h-6.142V124.035z
						"/>
				</g>
				<g>
					<path style="fill:#AD83E5;" d="M294.948,110.559c-0.664,0-1.203-0.539-1.203-1.203c0-0.665,0.539-1.203,1.203-1.203
						c0.665,0,1.203,0.539,1.203,1.203C296.152,110.02,295.613,110.559,294.948,110.559z"/>
					<path style="fill:#AD83E5;" d="M294.948,114.419c-0.664,0-1.203-0.539-1.203-1.203c0-0.665,0.539-1.203,1.203-1.203
						c0.665,0,1.203,0.539,1.203,1.203C296.152,113.881,295.613,114.419,294.948,114.419z"/>
					<path style="fill:#AD83E5;" d="M294.948,118.28c-0.664,0-1.203-0.539-1.203-1.203c0-0.665,0.539-1.203,1.203-1.203
						c0.665,0,1.203,0.539,1.203,1.203C296.152,117.741,295.613,118.28,294.948,118.28z"/>
				</g>
			</g>
			<g>
				<path style="fill:#FE00FE;" d="M291.378,62.712v247.207h4.492c1.464,0,2.65-1.178,2.65-2.642V62.712H291.378z"/>
				<g>
					<g>
						<rect x="291.378" y="130.366" style="fill:#1C1C1C;" width="7.141" height="22.723"/>
					</g>
					<g>
						<path style="fill:#1C1C1C;" d="M299.02,153.589h-8.142v-23.723h8.142V153.589z M291.878,152.589h6.142v-21.723h-6.142V152.589
							z"/>
					</g>
					<g>
						<path style="fill:#FE00FE;" d="M294.948,139.113c-0.664,0-1.203-0.539-1.203-1.203c0-0.665,0.539-1.203,1.203-1.203
							c0.665,0,1.203,0.539,1.203,1.203C296.152,138.574,295.613,139.113,294.948,139.113z"/>
						<path style="fill:#FE00FE;" d="M294.948,142.973c-0.664,0-1.203-0.539-1.203-1.203c0-0.665,0.539-1.203,1.203-1.203
							c0.665,0,1.203,0.539,1.203,1.203C296.152,142.435,295.613,142.973,294.948,142.973z"/>
						<path style="fill:#FE00FE;" d="M294.948,146.834c-0.664,0-1.203-0.539-1.203-1.203c0-0.665,0.539-1.203,1.203-1.203
							c0.665,0,1.203,0.539,1.203,1.203C296.152,146.295,295.613,146.834,294.948,146.834z"/>
					</g>
				</g>
			</g>
			<path style="fill:#FE00FE;" d="M34.087,302.778v4.499c0,1.464,1.186,2.642,2.65,2.642h4.529v-7.142H34.087z"/>
			<rect x="41.265" y="302.778" style="fill:#FE00FE;" width="250.058" height="7.141"/>
			<path style="fill:#FE00FE;" d="M291.323,302.778v7.142h4.537c1.464,0,2.65-1.178,2.65-2.642v-4.499H291.323z"/>
			<g>
				<rect x="290.878" y="55.41" style="fill:#1C1C1C;" width="1" height="254.509"/>
				<rect x="34.087" y="302.277" style="fill:#1C1C1C;" width="264.423" height="1"/>
				<polygon style="fill:#1C1C1C;" points="41.8,309.976 40.8,309.976 40.8,303.277 34.103,303.277 34.103,302.277 41.8,302.277 
									"/>
				<polygon style="fill:#1C1C1C;" points="298.574,63.1 290.876,63.1 290.876,55.402 291.876,55.402 291.876,62.1 298.574,62.1 
									"/>
			</g>
			<g>
				<g>
					<g>
						<g>
							<g>
								<path style="fill:#FE00FE;" d="M291.214,52.013h-7.87c-1.827,0-3.309-1.481-3.309-3.309v-7.599
									c0-1.827,1.481-3.309,3.309-3.309h7.87c1.827,0,3.309,1.481,3.309,3.309v7.599
									C294.523,50.532,293.041,52.013,291.214,52.013z"/>
							</g>
						</g>
					</g>
					<g>
						<g>
							
								<rect x="286.279" y="40.144" transform="matrix(0.7071 -0.7071 0.7071 0.7071 52.285 216.3434)" style="fill:#1C1C1C;" width="2" height="9.834"/>
							
								<rect x="282.362" y="44.061" transform="matrix(0.7071 -0.7071 0.7071 0.7071 52.2849 216.3432)" style="fill:#1C1C1C;" width="9.834" height="2"/>
						</g>
					</g>
				</g>
				<g>
					<g>
						<g>
							<g>
								<path style="fill:#FE00FE;" d="M267.06,52.013h-7.87c-1.827,0-3.309-1.481-3.309-3.309v-7.599
									c0-1.827,1.481-3.309,3.309-3.309h7.87c1.827,0,3.309,1.481,3.309,3.309v7.599C270.369,50.532,268.888,52.013,267.06,52.013
									z"/>
							</g>
						</g>
					</g>
					<g>
						<rect x="259.4" y="47.801" style="fill:#1C1C1C;" width="7.45" height="2"/>
					</g>
				</g>
				<g>
					<g>
						<g>
							<g>
								<path style="fill:#FE00FE;" d="M242.907,52.013h-7.87c-1.827,0-3.309-1.481-3.309-3.309v-7.599
									c0-1.827,1.481-3.309,3.309-3.309h7.87c1.827,0,3.309,1.481,3.309,3.309v7.599
									C246.216,50.532,244.735,52.013,242.907,52.013z"/>
							</g>
						</g>
					</g>
					<g>
						<g>
							<path style="fill:#1C1C1C;" d="M243.558,49.721h-9.171v-9.17h9.171V49.721z M236.387,47.721h5.171v-5.17h-5.171V47.721z"/>
							<rect x="235.387" y="41.551" style="fill:#1C1C1C;" width="7.171" height="3.089"/>
						</g>
					</g>
				</g>
			</g>
			<polygon style="fill:#1C1C1C;" points="295.039,57.682 292.955,60.691 297.124,60.691 			"/>
			<polygon style="fill:#1C1C1C;" points="295.039,299.364 292.955,296.355 297.124,296.355 			"/>
			<polygon style="fill:#1C1C1C;" points="35.848,306.388 38.858,308.473 38.858,304.303 			"/>
			<polygon style="fill:#1C1C1C;" points="288.273,306.388 285.264,308.473 285.264,304.303 			"/>
			<g>
				<rect x="96.728" y="302.778" style="fill:#1C1C1C;" width="35.382" height="7.141"/>
				<path style="fill:#1C1C1C;" d="M132.61,310.419H96.228v-8.142h36.382V310.419z M97.228,309.419h34.382v-6.142H97.228V309.419z"
					/>
				<g>
					<path style="fill:#FE00FE;" d="M111.7,306.661c0,0.664-0.539,1.203-1.203,1.203c-0.665,0-1.203-0.539-1.203-1.203
						c0-0.665,0.539-1.203,1.203-1.203C111.162,305.457,111.7,305.996,111.7,306.661z"/>
					<circle style="fill:#FE00FE;" cx="114.358" cy="306.661" r="1.203"/>
					<circle style="fill:#FE00FE;" cx="118.218" cy="306.661" r="1.203"/>
				</g>
			</g>
			<g>
				<g>
					<path style="fill:#FE00FE;" d="M253.153,77.626H82.01c-1.355,0-2.454-1.099-2.454-2.454v-8.081
						c0-1.355,1.098-2.454,2.454-2.454h171.143c1.355,0,2.454,1.099,2.454,2.454v8.081
						C255.607,76.527,254.508,77.626,253.153,77.626z"/>
				</g>
				<g>
					<path style="fill:#FE00FE;" d="M253.153,64.637h-10.368v12.989h10.368c1.355,0,2.454-1.099,2.454-2.454v-8.081
						C255.607,65.736,254.508,64.637,253.153,64.637z"/>
				</g>
				<g>
					<g>
						<path style="fill:#1C1C1C;" d="M253.153,78.626H82.01c-1.904,0-3.454-1.549-3.454-3.454v-8.082
							c0-1.904,1.549-3.454,3.454-3.454h171.143c1.904,0,3.454,1.549,3.454,3.454v8.082
							C256.607,77.077,255.058,78.626,253.153,78.626z M82.01,65.637c-0.802,0-1.454,0.652-1.454,1.454v8.082
							c0,0.802,0.652,1.454,1.454,1.454h171.143c0.802,0,1.454-0.652,1.454-1.454v-8.082c0-0.802-0.652-1.454-1.454-1.454H82.01z"/>
					</g>
				</g>
				<polygon style="fill:#1C1C1C;" points="253.164,71.188 246.381,67.883 246.381,74.493 				"/>
			</g>
			<g>
				<g>
					<polygon style="fill:#1C1C1C;" points="54.062,70.514 59.501,75.224 59.501,65.804 					"/>
					<rect x="58.672" y="68.55" style="fill:#1C1C1C;" width="3.711" height="3.928"/>
				</g>
				<g>
					<polygon style="fill:#1C1C1C;" points="74.207,70.514 68.768,75.224 68.768,65.804 					"/>
					
						<rect x="65.886" y="68.55" transform="matrix(-1 -1.224647e-16 1.224647e-16 -1 135.4832 141.0277)" style="fill:#1C1C1C;" width="3.711" height="3.928"/>
				</g>
				<g>
					<polygon style="fill:#1C1C1C;" points="44.705,65.236 50.559,70.675 38.851,70.675 					"/>
					<polygon style="fill:#1C1C1C;" points="49.571,69.925 49.571,75.221 46.299,75.221 46.299,72.814 43.33,72.814 43.33,75.221 
						39.838,75.221 39.838,69.925 					"/>
					<rect x="46.949" y="65.849" style="fill:#1C1C1C;" width="2.413" height="4.105"/>
				</g>
			</g>
			<polygon style="fill:#1C1C1C;" points="281.041,66.1 282.682,69.424 286.35,69.957 283.696,72.544 284.322,76.197 
				281.041,74.473 277.761,76.197 278.387,72.544 275.733,69.957 279.401,69.424 			"/>
			<g>
				<path style="fill:#1C1C1C;" d="M266.385,76.37c-1.947,0-3.712-1.152-4.496-2.936l1.645-0.723
					c0.498,1.131,1.616,1.862,2.851,1.862c1.716,0,3.111-1.396,3.111-3.112c0-1.716-1.395-3.111-3.111-3.111v-1.797
					c2.707,0,4.908,2.202,4.908,4.908C271.293,74.168,269.092,76.37,266.385,76.37z"/>
				<polygon style="fill:#1C1C1C;" points="262.956,70.497 265.758,73.733 260.153,73.733 				"/>
			</g>
		</g>
		<g>
			<path style="fill:#FE00FE;" d="M267.482,251.245H154.194c-6.229,0-11.278-5.049-11.278-11.278V113.061
				c0-6.229,5.049-11.278,11.278-11.278h113.288c6.229,0,11.278,5.049,11.278,11.278v126.905
				C278.76,246.195,273.711,251.245,267.482,251.245z"/>
			<path style="fill:#1C1C1C;" d="M214.282,137.749l9.879,20.018c0.557,1.129,1.635,1.912,2.881,2.093l22.091,3.21
				c3.139,0.456,4.392,4.313,2.121,6.527l-15.985,15.582c-0.902,0.879-1.313,2.146-1.1,3.387l3.774,22.002
				c0.536,3.126-2.745,5.51-5.552,4.034l-19.759-10.388c-1.115-0.586-2.447-0.586-3.561,0l-19.759,10.388
				c-2.807,1.476-6.088-0.908-5.552-4.034l3.773-22.002c0.213-1.241-0.199-2.508-1.101-3.387l-15.985-15.582
				c-2.271-2.214-1.018-6.071,2.121-6.527l22.091-3.21c1.246-0.181,2.324-0.964,2.881-2.093l9.879-20.018
				C208.823,134.904,212.879,134.904,214.282,137.749z"/>
			<path style="fill:#1C1C1C;" d="M267.111,251.189H153.824c-6.495,0-11.778-5.284-11.778-11.778V112.505
				c0-6.494,5.284-11.778,11.778-11.778h113.287c6.495,0,11.778,5.284,11.778,11.778v126.906
				C278.89,245.905,273.606,251.189,267.111,251.189z M153.824,101.728c-5.943,0-10.778,4.835-10.778,10.778v126.906
				c0,5.943,4.835,10.778,10.778,10.778h113.287c5.943,0,10.778-4.835,10.778-10.778V112.505c0-5.943-4.835-10.778-10.778-10.778
				H153.824z"/>
			<path style="fill:#1C1C1C;" d="M113.685,236.667c-1.263,0-2.391,0.569-3.148,1.463c-0.757-0.894-1.885-1.463-3.148-1.463
				c-2.278,0-4.125,1.847-4.125,4.125c0,4.566,5.902,7.959,7.273,7.959s7.273-3.825,7.273-7.959
				C117.811,238.514,115.964,236.667,113.685,236.667z"/>
			<path style="fill:#1C1C1C;" d="M91.613,236.667c-1.263,0-2.391,0.569-3.148,1.463c-0.757-0.894-1.885-1.463-3.148-1.463
				c-2.278,0-4.125,1.847-4.125,4.125c0,4.566,5.902,7.959,7.273,7.959s7.273-3.825,7.273-7.959
				C95.738,238.514,93.892,236.667,91.613,236.667z"/>
			<path style="fill:#1C1C1C;" d="M69.541,236.667c-1.263,0-2.392,0.569-3.148,1.463c-0.757-0.894-1.885-1.463-3.148-1.463
				c-2.278,0-4.125,1.847-4.125,4.125c0,4.566,5.902,7.959,7.273,7.959c1.371,0,7.273-3.825,7.273-7.959
				C73.666,238.514,71.819,236.667,69.541,236.667z"/>
		</g>
		<g>
			<rect x="49.842" y="107.278" style="fill:#1C1C1C;" width="67.852" height="5"/>
			<rect x="49.842" y="124.138" style="fill:#1C1C1C;" width="67.852" height="5"/>
			<rect x="49.842" y="140.997" style="fill:#1C1C1C;" width="67.852" height="5"/>
			<rect x="49.842" y="157.856" style="fill:#1C1C1C;" width="67.852" height="5"/>
			<rect x="49.842" y="174.716" style="fill:#1C1C1C;" width="67.852" height="5"/>
			<rect x="49.842" y="191.575" style="fill:#1C1C1C;" width="67.852" height="5"/>
			<rect x="49.842" y="208.435" style="fill:#1C1C1C;" width="67.852" height="5"/>
		</g>
	</g>
	<g>
		<g>
			<g>
				<path style="fill:#1C1C1C;" d="M616.902,463.671h0.861v-2.585h0.861v-0.862h2.585v0.862h0.862v1.723h-0.862v-0.861h-0.861
					v-0.861h-0.862v2.585h0.862v0.861h-0.862v3.447h0.862v0.861h-3.446v-0.861h0.861v-3.447h-0.861V463.671z"/>
				<path style="fill:#1C1C1C;" d="M625.381,460.224h2.585v7.756h0.861v0.861h-3.446v-0.861h0.861v-6.894h-0.861V460.224z"/>
				<path style="fill:#1C1C1C;" d="M632.137,467.979h-0.862v-4.309h0.862v-0.862h4.308v0.862h0.862v4.309h-0.862v0.861h-4.308
					V467.979z M635.583,463.671h-2.585v4.309h2.585V463.671z"/>
				<path style="fill:#1C1C1C;" d="M641.477,462.809h2.586v0.862h0.861v4.309h-0.861v0.861h-2.586v1.724h0.862v0.861h-3.446v-0.861
					h0.861v-6.894h-0.861v-0.862h1.723v0.862h0.856l0.006,0.007v4.302h1.725v-4.309h-1.725V462.809z"/>
				<path style="fill:#1C1C1C;" d="M649.094,462.809h2.586v0.862h0.861v4.309h-0.861v0.861h-2.586v1.724h0.862v0.861h-3.446v-0.861
					h0.861v-6.894h-0.861v-0.862h1.723v0.862h0.856l0.006,0.007v4.302h1.725v-4.309h-1.725V462.809z"/>
				<path style="fill:#1C1C1C;" d="M654.127,470.565h3.446v-0.862h0.862v-0.861h-3.447v-0.861h-0.861v-5.171h1.723v5.171h2.586
					v-5.171h1.723v6.893h-0.861v0.862h-0.861v0.861h-4.308V470.565z"/>
				<path style="fill:#1C1C1C;" d="M672.809,463.671h-0.862v0.861h-0.862v3.447h1.717l0.008,0.007v0.854h-2.586v-0.861h-0.861
					v-3.447h0.861v-0.861h0.861v-0.862h1.725v-1.723h-0.862v-0.862h2.585v7.756h0.861v0.861h-1.723v-0.861h-0.861V463.671z"/>
				<path style="fill:#1C1C1C;" d="M678.701,462.809h2.586v5.171h0.861v0.861h-3.447v-0.861h0.862v-4.309h-0.862V462.809z
					 M679.563,460.224h1.724v1.724h-1.724V460.224z"/>
				<path style="fill:#1C1C1C;" d="M688.904,463.671h-2.586v0.861h0.862v0.862h1.724v0.861h0.861v0.861h0.861v0.862h-0.861v0.861
					h-4.309v-0.861h-0.861v-0.862h1.723v0.862h2.586v-0.862h-0.861v-0.861h-1.725v-0.861h-0.861v-0.862h-0.861v-0.861h0.861v-0.862
					h4.309v0.862h0.861v0.861h-1.723V463.671z"/>
				<path style="fill:#1C1C1C;" d="M695.66,463.671h0.861v-0.862h1.723v0.862h-0.861v0.861h-0.861v1.724h0.861v0.861h0.861v1.724
					h-1.723v-1.724h-0.861v-0.861h-0.862v2.585h-2.585v-0.861h0.861v-6.894h-0.861v-0.862h2.585v4.309h0.862V463.671z"/>
			</g>
		</g>
		<g>
			<path style="fill:#1C1C1C;" d="M675.48,451.181h-35.52c-2.956,0-5.374-2.418-5.374-5.374v-34.992
				c0-2.956,2.418-5.374,5.374-5.374h28.401l12.493,10.163v30.203C680.854,448.763,678.436,451.181,675.48,451.181z"/>
			<path style="fill:#FE00FE;" d="M640.971,405.514v13.214c0,1.884,1.527,3.412,3.412,3.412h20.566c1.884,0,3.412-1.527,3.412-3.412
				v-13.214H640.971z"/>
			<path style="fill:#1C1C1C;" d="M645.992,405.442v11.761c0,1.275,1.033,2.308,2.308,2.308h15.268c1.275,0,2.308-1.033,2.308-2.308
				v-11.761H645.992z M662.567,416.929h-4.946v-7.958h4.946V416.929z"/>
			<path style="fill:#1C1C1C;" d="M675.48,452.182h-35.52c-3.515,0-6.374-2.859-6.374-6.374v-34.991
				c0-3.515,2.859-6.374,6.374-6.374h28.756l13.138,10.688v30.678C681.853,449.322,678.994,452.182,675.48,452.182z M639.96,406.442
				c-2.412,0-4.374,1.962-4.374,4.374v34.991c0,2.412,1.962,4.374,4.374,4.374h35.52c2.411,0,4.373-1.962,4.373-4.374v-29.727
				l-11.849-9.639H639.96z"/>
			<path style="fill:#FE00FE;" d="M641.356,444.593v-16.831c0-1.247,1.011-2.258,2.258-2.258h28.927
				c1.247,0,2.258,1.011,2.258,2.258v16.831c0,1.247-1.011,2.258-2.258,2.258h-28.927
				C642.367,446.851,641.356,445.84,641.356,444.593z"/>
			<g>
				<rect x="646.227" y="429.628" style="fill:#1C1C1C;" width="23.339" height="2"/>
				<rect x="646.227" y="435.219" style="fill:#1C1C1C;" width="23.339" height="2"/>
				<rect x="646.227" y="440.81" style="fill:#1C1C1C;" width="23.339" height="2"/>
			</g>
		</g>
	</g>
	<g>
		<g>
			<path style="fill:#1C1C1C;" d="M468.298,394.973c-15.292,0-27.685,12.392-27.685,27.672c0,15.28,12.392,27.672,27.685,27.672
				c15.28,0,27.672-12.392,27.672-27.672C495.971,407.365,483.578,394.973,468.298,394.973z M468.298,431.654
				c-4.982,0-9.009-4.04-9.009-9.009c0-4.969,4.028-9.009,9.009-9.009c4.969,0,8.997,4.04,8.997,9.009
				C477.295,427.614,473.268,431.654,468.298,431.654z"/>
			<g>
				<path style="fill:#FE00FE;" d="M472.123,431.157l12.536,13.801c4.193-3.08,7.48-7.315,9.408-12.232l-16.992-6.901
					C475.71,428.048,474.087,429.868,472.123,431.157z"/>
				<path style="fill:#FE00FE;" d="M464.491,414.022l-11.265-14.569c-4.979,3.24-8.862,8.022-10.935,13.684l16.738,8.066
					C460.114,418.138,461.91,415.722,464.491,414.022z"/>
			</g>
			<path style="fill:#FE00FE;" d="M468.298,408.592c-7.77,0-14.053,6.295-14.053,14.053c0,7.758,6.283,14.053,14.053,14.053
				c7.758,0,14.041-6.295,14.041-14.053C482.339,414.887,476.056,408.592,468.298,408.592z M468.298,431.654
				c-4.982,0-9.009-4.04-9.009-9.009c0-4.969,4.028-9.009,9.009-9.009c4.969,0,8.997,4.04,8.997,9.009
				C477.295,427.614,473.268,431.654,468.298,431.654z"/>
			<path style="fill:#1C1C1C;" d="M468.299,437.198c-8.025,0-14.554-6.528-14.554-14.554c0-8.024,6.528-14.553,14.554-14.553
				c8.018,0,14.54,6.528,14.54,14.553C482.839,430.67,476.316,437.198,468.299,437.198z M468.299,409.092
				c-7.474,0-13.554,6.08-13.554,13.553c0,7.474,6.08,13.554,13.554,13.554c7.466,0,13.54-6.08,13.54-13.554
				C481.839,415.172,475.765,409.092,468.299,409.092z M468.299,432.154c-5.244,0-9.51-4.266-9.51-9.51
				c0-5.243,4.266-9.509,9.51-9.509c5.236,0,9.497,4.266,9.497,9.509C477.796,427.889,473.535,432.154,468.299,432.154z
				 M468.299,414.136c-4.692,0-8.51,3.817-8.51,8.509c0,4.692,3.817,8.51,8.51,8.51c4.686,0,8.497-3.817,8.497-8.51
				C476.796,417.953,472.984,414.136,468.299,414.136z"/>
			<g>
				<g>
					<path style="fill:#1C1C1C;" d="M468.299,451.317c-15.816,0-28.685-12.862-28.685-28.673c0-15.81,12.868-28.672,28.685-28.672
						c15.81,0,28.672,12.862,28.672,28.672C496.971,438.455,484.108,451.317,468.299,451.317z M468.299,395.973
						c-14.714,0-26.685,11.965-26.685,26.672c0,14.707,11.971,26.673,26.685,26.673c14.707,0,26.672-11.966,26.672-26.673
						C494.971,407.938,483.006,395.973,468.299,395.973z"/>
				</g>
				<g>
					<path style="fill:#1C1C1C;" d="M468.299,432.654c-5.52,0-10.01-4.49-10.01-10.01c0-5.518,4.49-10.009,10.01-10.009
						c5.513,0,9.997,4.49,9.997,10.009C478.296,428.164,473.811,432.654,468.299,432.654z M468.299,414.636
						c-4.417,0-8.01,3.593-8.01,8.009c0,4.417,3.593,8.01,8.01,8.01c4.409,0,7.997-3.593,7.997-8.01
						C476.296,418.228,472.708,414.636,468.299,414.636z"/>
				</g>
			</g>
		</g>
		<g>
			<path style="fill:#1C1C1C;" d="M457.876,463.671h-0.862v0.861h-0.861v3.447h1.717l0.007,0.007v0.854h-2.585v-0.861h-0.861v-3.447
				h0.861v-0.861h0.861v-0.862h1.724v-1.723h-0.862v-0.862h2.586v7.756h0.861v0.861h-1.723v-0.861h-0.862V463.671z"/>
			<path style="fill:#1C1C1C;" d="M463.77,462.809h2.586v5.171h0.861v0.861h-3.447v-0.861h0.861v-4.309h-0.861V462.809z
				 M464.631,460.224h1.725v1.724h-1.725V460.224z"/>
			<path style="fill:#1C1C1C;" d="M473.973,463.671h-2.586v0.861h0.861v0.862h1.725v0.861h0.861v0.861h0.861v0.862h-0.861v0.861
				h-4.309v-0.861h-0.861v-0.862h1.723v0.862h2.586v-0.862h-0.862v-0.861h-1.724v-0.861h-0.861v-0.862h-0.861v-0.861h0.861v-0.862
				h4.309v0.862h0.861v0.861h-1.723V463.671z"/>
			<path style="fill:#1C1C1C;" d="M480.727,463.671h0.863v-0.862h1.723v0.862h-0.861v0.861h-0.861v1.724h0.861v0.861h0.861v1.724
				h-1.723v-1.724h-0.863v-0.861h-0.861v2.585h-2.584v-0.861h0.861v-6.894h-0.861v-0.862h2.584v4.309h0.861V463.671z"/>
		</g>
	</g>
	<g>
		<g>
			<g>
				<g>
					<path style="fill:#1C1C1C;" d="M321.1,361.719h-43.362c-2.027,0-3.671-1.643-3.671-3.671v-13.045
						c0-2.027,1.643-3.671,3.671-3.671H321.1c2.027,0,3.671,1.643,3.671,3.671v13.045C324.77,360.075,323.127,361.719,321.1,361.719
						z"/>
					<path style="fill:#FE00FE;" d="M317.886,357.85h-43.362c-2.027,0-3.671-1.643-3.671-3.671v-13.045
						c0-2.027,1.643-3.671,3.671-3.671h43.362c2.027,0,3.671,1.643,3.671,3.671v13.045
						C321.557,356.207,319.913,357.85,317.886,357.85z"/>
					<path style="fill:#1C1C1C;" d="M317.886,358.851h-43.362c-2.575,0-4.67-2.096-4.67-4.671v-13.045
						c0-2.575,2.095-4.671,4.67-4.671h43.362c2.575,0,4.67,2.096,4.67,4.671v13.045
						C322.557,356.755,320.461,358.851,317.886,358.851z M274.524,338.464c-1.473,0-2.67,1.198-2.67,2.671v13.045
						c0,1.473,1.198,2.671,2.67,2.671h43.362c1.473,0,2.67-1.198,2.67-2.671v-13.045c0-1.473-1.198-2.671-2.67-2.671H274.524z"/>
				</g>
			</g>
			<g>
				<path style="fill:#1C1C1C;" d="M288.558,349.698h0.728v-2.913h-0.728v-0.729h-0.729v-2.912h1.457v2.912h1.457v-2.912h1.456
					v2.912h-0.728v0.729h-0.728v2.913h0.728v0.728h-2.913V349.698z"/>
				<path style="fill:#1C1C1C;" d="M293.801,345.329h3.641v0.728h0.728v1.457h-3.641v2.185h2.185v-0.729h1.456v0.729h-0.728v0.728
					h-3.641v-0.728h-0.728v-3.642h0.728V345.329z M294.529,346.785h2.185v-0.729h-2.185V346.785z"/>
				<path style="fill:#1C1C1C;" d="M302.685,346.057H300.5v0.729h0.728v0.729h1.457v0.728h0.728v0.728h0.728v0.729h-0.728v0.728
					h-3.641v-0.728h-0.728v-0.729h1.457v0.729h2.185v-0.729h-0.729v-0.728H300.5v-0.728h-0.728v-0.729h-0.728v-0.729h0.728v-0.728
					h3.641v0.728h0.728v0.729h-1.456V346.057z"/>
			</g>
		</g>
		<g>
			<g>
				<g>
					<path style="fill:#1C1C1C;" d="M320.428,395.465h-38.805c-2.027,0-3.671-1.643-3.671-3.671V378.75
						c0-2.027,1.643-3.671,3.671-3.671h38.805c2.027,0,3.671,1.643,3.671,3.671v13.045
						C324.099,393.822,322.455,395.465,320.428,395.465z"/>
					<path style="fill:#FE00FE;" d="M317.214,391.597h-38.805c-2.027,0-3.671-1.643-3.671-3.671v-13.045
						c0-2.027,1.643-3.671,3.671-3.671h38.805c2.027,0,3.671,1.643,3.671,3.671v13.045
						C320.885,389.954,319.242,391.597,317.214,391.597z"/>
					<path style="fill:#1C1C1C;" d="M317.214,392.597h-38.805c-2.575,0-4.67-2.095-4.67-4.67v-13.046c0-2.575,2.095-4.67,4.67-4.67
						h38.805c2.576,0,4.671,2.095,4.671,4.67v13.046C321.885,390.502,319.79,392.597,317.214,392.597z M278.409,372.211
						c-1.473,0-2.67,1.197-2.67,2.67v13.046c0,1.473,1.198,2.67,2.67,2.67h38.805c1.473,0,2.671-1.197,2.671-2.67v-13.046
						c0-1.473-1.198-2.67-2.671-2.67H278.409z"/>
				</g>
			</g>
			<g>
				<g>
					<path style="fill:#1C1C1C;" d="M295.558,380.531h-0.728v-0.728h-0.728v4.369h-1.457v-7.282h1.457v0.729h0.728v0.728h0.728
						v0.728h0.728v-2.185h1.456v7.282h-1.456v-2.913h-0.728V380.531z"/>
					<path style="fill:#1C1C1C;" d="M299.345,383.444h-0.728v-3.641h0.728v-0.729h3.641v0.729h0.728v3.641h-0.728v0.729h-3.641
						V383.444z M302.258,379.804h-2.185v3.641h2.185V379.804z"/>
				</g>
			</g>
		</g>
	</g>
	<g>
		<g>
			<g>
				<circle style="fill:#FE00FE;" cx="552.29" cy="425.377" r="26.34"/>
				<path style="fill:#1C1C1C;" d="M552.29,452.718c-15.076,0-27.341-12.265-27.341-27.341c0-15.075,12.265-27.34,27.341-27.34
					c15.075,0,27.34,12.265,27.34,27.34C579.63,440.453,567.365,452.718,552.29,452.718z M552.29,400.037
					c-13.973,0-25.341,11.367-25.341,25.34c0,13.973,11.368,25.341,25.341,25.341c13.973,0,25.34-11.368,25.34-25.341
					C577.63,411.404,566.263,400.037,552.29,400.037z"/>
				<path style="fill:#1C1C1C;" d="M551.112,452.505l-0.172-0.114c-8.382-5.578-13.592-15.931-13.592-27.014
					c0-11.17,5.271-21.563,13.756-27.122l1.096,1.674c-7.927,5.193-12.852,14.944-12.852,25.448
					c0,10.423,4.868,20.137,12.704,25.352l0.14,0.092L551.112,452.505z"/>
				<path style="fill:#1C1C1C;" d="M553.59,452.488l-1.149-1.639l0.18-0.118c7.84-5.218,12.708-14.932,12.708-25.354
					c0-10.518-4.934-20.276-12.879-25.467l1.094-1.674c8.503,5.556,13.785,15.955,13.785,27.141c0,11.083-5.21,21.435-13.597,27.017
					L553.59,452.488z"/>
			</g>
			<g>
				<rect x="525.955" y="424.377" style="fill:#1C1C1C;" width="52.675" height="2"/>
				<rect x="529.443" y="411.487" style="fill:#1C1C1C;" width="45.822" height="2"/>
				<rect x="529.673" y="438.284" style="fill:#1C1C1C;" width="44.988" height="2"/>
				<rect x="551.29" y="399.037" style="fill:#1C1C1C;" width="2" height="52.681"/>
			</g>
		</g>
		<g>
			<path style="fill:#1C1C1C;" d="M548.015,468.84h-1.723v-0.861h-0.862v0.861h-1.723v-0.861h-0.862v-5.171h1.724v4.309h0.861
				v-2.585h0.862v2.585h0.861v-4.309h1.724v5.171h-0.862V468.84z"/>
			<path style="fill:#1C1C1C;" d="M551.324,462.808h4.308v0.862h0.862v1.724h-4.309v2.585h2.585v-0.862h1.724v0.862h-0.862v0.861
				h-4.308v-0.861h-0.862v-4.309h0.862V462.808z M552.185,464.531h2.585v-0.861h-2.585V464.531z"/>
			<path style="fill:#1C1C1C;" d="M560.664,462.808h1.724v0.862h0.861v0.861h0.862v3.447h-0.862v0.861h-4.308v-7.755h-0.862v-0.862
				h2.585V462.808z M561.526,463.67h-0.862v4.309h1.724v-3.447h-0.861V463.67z"/>
		</g>
	</g>
	<g>
		<g>
			<g>
				<path style="fill:#1C1C1C;" d="M273.037,453.655l0.318-38.703c0-1.069,0.867-1.935,1.935-1.935h15.861
					c0.547,0,1.069,0.232,1.436,0.638l7.017,9.257c0.316,0.35,0.75,0.573,1.219,0.626l14.324,1.622
					c0.981,0.111,1.721,0.943,1.717,1.931l-5.757,26.462L273.037,453.655z"/>
				<path style="fill:#1C1C1C;" d="M274.505,454.152c-0.44,0-0.853-0.171-1.165-0.481c-0.314-0.313-0.486-0.728-0.486-1.17v-37.804
					c0-1.202,0.978-2.181,2.18-2.181h17.221l8.105,10.467l17.109,1.936l-5.955,29.132l-37.005,0.101
					C274.509,454.152,274.507,454.152,274.505,454.152z M275.035,413.517c-0.651,0-1.18,0.529-1.18,1.181v37.804
					c0,0.175,0.068,0.338,0.191,0.462c0.123,0.122,0.286,0.189,0.46,0.189c0,0,0.001,0,0.002,0l36.192-0.099l5.573-27.263
					l-16.443-1.862l-8.063-10.412H275.035z"/>
				<g>
					<path style="fill:#FE00FE;" d="M318.087,452.032h-40.551c-1.229,0-2.226-0.997-2.226-2.226v-30.922
						c0-1.229,0.996-2.226,2.226-2.226h40.551c1.229,0,2.226,0.997,2.226,2.226v30.922
						C320.313,451.035,319.317,452.032,318.087,452.032z"/>
					<path style="fill:#1C1C1C;" d="M318.087,453.032h-40.551c-1.779,0-3.226-1.447-3.226-3.226v-30.923
						c0-1.778,1.447-3.226,3.226-3.226h40.551c1.779,0,3.226,1.447,3.226,3.226v30.923
						C321.313,451.585,319.866,453.032,318.087,453.032z M277.537,417.658c-0.676,0-1.226,0.55-1.226,1.226v30.923
						c0,0.676,0.55,1.226,1.226,1.226h40.551c0.676,0,1.226-0.55,1.226-1.226v-30.923c0-0.676-0.55-1.226-1.226-1.226H277.537z"/>
				</g>
				<path style="fill:#1C1C1C;" d="M318.674,453.655h-41.33c-1.348,0-2.389-1.185-2.215-2.522l3.798-29.198
					c0.209-1.609,1.709-2.923,3.331-2.92l41.476,0.085c1.621,0.003,2.742,1.32,2.503,2.939l-4.241,28.749
					C321.764,452.365,320.269,453.655,318.674,453.655z"/>
				<path style="fill:#1C1C1C;" d="M318.674,454.155h-42.825c-0.409,0-0.797-0.176-1.067-0.482c-0.27-0.308-0.395-0.716-0.342-1.121
					l3.992-30.681c0.241-1.852,1.954-3.355,3.82-3.355c0.003,0,0.006,0,0.008,0l41.476,0.084c0.927,0.002,1.75,0.367,2.318,1.027
					c0.575,0.668,0.816,1.55,0.678,2.484l-4.241,28.749C322.223,452.677,320.511,454.155,318.674,454.155z M282.252,419.516
					c-1.359,0-2.653,1.137-2.829,2.484l-3.991,30.681c-0.016,0.121,0.021,0.239,0.102,0.332c0.081,0.092,0.193,0.143,0.316,0.143
					h42.825c1.337,0,2.632-1.118,2.828-2.441l4.241-28.749c0.095-0.643-0.064-1.241-0.447-1.686
					c-0.376-0.436-0.931-0.678-1.563-0.68l-41.476-0.084C282.256,419.516,282.254,419.516,282.252,419.516z"/>
			</g>
			<g>
				<path style="fill:#1C1C1C;" d="M280.672,463.67h0.861v-2.585h0.862v-0.862h2.585v0.862h0.862v1.723h-0.862v-0.861h-0.861v-0.861
					h-0.862v2.585h0.862v0.861h-0.862v3.447h0.862v0.861h-3.447v-0.861h0.861v-3.447h-0.861V463.67z"/>
				<path style="fill:#1C1C1C;" d="M287.049,467.978h-0.862v-4.309h0.862v-0.862h4.308v0.862h0.862v4.309h-0.862v0.861h-4.308
					V467.978z M290.496,463.67h-2.585v4.309h2.585V463.67z"/>
				<path style="fill:#1C1C1C;" d="M294.287,460.223h2.586v7.756h0.861v0.861h-3.447v-0.861h0.862v-6.893h-0.862V460.223z"/>
				<path style="fill:#1C1C1C;" d="M302.387,463.67h-0.862v0.861h-0.862v3.447h1.717l0.007,0.007v0.854h-2.585v-0.861h-0.862v-3.447
					h0.862v-0.861h0.861v-0.862h1.724v-1.723h-0.862v-0.862h2.585v7.756h0.862v0.861h-1.723v-0.861h-0.862V463.67z"/>
				<path style="fill:#1C1C1C;" d="M306.178,462.808h4.308v0.862h0.862v1.724h-4.309v2.585h2.585v-0.862h1.723v0.862h-0.862v0.861
					h-4.308v-0.861h-0.862v-4.309h0.862V462.808z M307.04,464.531h2.585v-0.861h-2.585V464.531z"/>
				<path style="fill:#1C1C1C;" d="M315.14,464.531h-0.862v3.447h0.862v0.861h-3.447v-0.861h0.862v-4.309h-0.862v-0.862h1.723v0.862
					h0.862v-0.862h2.585v0.862h0.862v1.724h-1.723v-1.724h-0.862V464.531z"/>
			</g>
		</g>
	</g>
	<g>
		<g>
			<g>
				<path style="fill:#1C1C1C;" d="M343.852,105.826h-0.861v3.447h-0.862v-3.447h-0.861v4.309h-1.724v-6.032h2.585v0.862h0.862
					v-0.862h1.723v0.862h0.862v5.17h-1.724V105.826z"/>
				<path style="fill:#1C1C1C;" d="M347.161,111.858h3.447v-0.862h0.861v-0.861h-3.446v-0.861h-0.862v-5.171h1.724v5.171h2.585
					v-5.171h1.724v6.894h-0.862v0.862h-0.861v0.861h-4.309V111.858z"/>
				<path style="fill:#1C1C1C;" d="M366.705,104.964h-2.586v4.309h2.586v-0.862h1.723v0.862h-0.861v0.861h-4.309v-0.861h-0.861
					v-4.309h0.861v-0.862h4.309v0.862h0.861v0.861h-1.723V104.964z"/>
				<path style="fill:#1C1C1C;" d="M370.875,109.273h-0.861v-4.309h0.861v-0.862h4.309v0.862h0.861v4.309h-0.861v0.861h-4.309
					V109.273z M374.322,104.964h-2.586v4.309h2.586V104.964z"/>
				<path style="fill:#1C1C1C;" d="M381.939,105.826h-0.862v3.447h-0.861v-3.447h-0.862v4.309h-1.723v-6.032h2.585v0.862h0.861
					v-0.862h1.724v0.862h0.861v5.17h-1.723V105.826z"/>
				<path style="fill:#1C1C1C;" d="M387.833,104.102h2.585v0.862h0.861v4.309h-0.861v0.861h-2.585v1.724h0.861v0.861h-3.446v-0.861
					h0.861v-6.894h-0.861v-0.862h1.723v0.862h0.855l0.007,0.007v4.302h1.724v-4.309h-1.724V104.102z"/>
				<path style="fill:#1C1C1C;" d="M392.865,104.102h1.724v5.171h1.724v0.861h-2.585v-0.861h-0.862V104.102z M396.313,104.102h1.723
					v5.171h0.862v0.861h-1.724v-0.861h-0.861V104.102z"/>
				<path style="fill:#1C1C1C;" d="M400.482,104.102h1.724v-1.723h0.861v-0.862h0.862v2.585h1.723v0.862h-1.723v4.309h0.861v-0.862
					h1.724v0.862h-0.862v0.861h-2.585v-0.861h-0.861v-4.309h-1.724V104.102z"/>
				<path style="fill:#1C1C1C;" d="M408.962,104.102h4.308v0.862h0.862v1.724h-4.309v2.585h2.585v-0.862h1.724v0.862h-0.862v0.861
					h-4.308v-0.861H408.1v-4.309h0.862V104.102z M409.823,105.826h2.585v-0.861h-2.585V105.826z"/>
				<path style="fill:#1C1C1C;" d="M419.164,105.826h-0.862v3.447h0.862v0.861h-3.447v-0.861h0.862v-4.309h-0.862v-0.862h1.724
					v0.862h0.861v-0.862h2.585v0.862h0.862v1.724h-1.724v-1.724h-0.861V105.826z"/>
			</g>
		</g>
		<g>
			<g>
				<rect x="374.172" y="76.403" style="fill:#FE00FE;" width="10.937" height="10.937"/>
				<path style="fill:#1C1C1C;" d="M386.108,88.34h-12.936V75.403h12.936V88.34z M375.172,86.34h8.936v-8.937h-8.936V86.34z"/>
				<path style="fill:#FE00FE;" d="M392.322,93.622h-25.364c-0.866,0-1.569-0.702-1.569-1.569v-5.473
					c0-0.866,0.702-1.568,1.569-1.568h25.364c0.866,0,1.569,0.702,1.569,1.568v5.473C393.89,92.92,393.188,93.622,392.322,93.622z"
					/>
				<path style="fill:#1C1C1C;" d="M392.322,94.623h-25.364c-1.416,0-2.568-1.152-2.568-2.569v-5.472
					c0-1.416,1.152-2.569,2.568-2.569h25.364c1.417,0,2.569,1.152,2.569,2.569v5.472C394.891,93.47,393.738,94.623,392.322,94.623z
					 M366.958,86.013c-0.314,0-0.568,0.255-0.568,0.569v5.472c0,0.313,0.255,0.569,0.568,0.569h25.364
					c0.314,0,0.569-0.255,0.569-0.569v-5.472c0-0.313-0.255-0.569-0.569-0.569H366.958z"/>
				<path style="fill:#FE00FE;" d="M402.967,80.126h-46.654c-1.576,0-2.853-1.277-2.853-2.853V46.383
					c0-1.576,1.277-2.853,2.853-2.853h46.654c1.576,0,2.853,1.277,2.853,2.853v30.891C405.82,78.849,404.542,80.126,402.967,80.126z
					"/>
				<path style="fill:#1C1C1C;" d="M402.967,81.127h-46.653c-2.124,0-3.853-1.729-3.853-3.853V46.383
					c0-2.125,1.729-3.853,3.853-3.853h46.653c2.124,0,3.852,1.729,3.852,3.853v30.891C406.819,79.398,405.091,81.127,402.967,81.127
					z M356.313,44.53c-1.022,0-1.853,0.831-1.853,1.853v30.891c0,1.022,0.831,1.853,1.853,1.853h46.653
					c1.021,0,1.852-0.831,1.852-1.853V46.383c0-1.022-0.831-1.853-1.852-1.853H356.313z"/>
				<path style="fill:#1C1C1C;" d="M398.007,75.268h-36.734c-1.241,0-2.246-1.006-2.246-2.246V48.699
					c0-1.241,1.006-2.246,2.246-2.246h36.734c1.241,0,2.246,1.006,2.246,2.246v24.322C400.253,74.262,399.247,75.268,398.007,75.268
					z"/>
				<polygon style="fill:#FE00FE;" points="372.01,46.453 359.027,57.95 359.027,65.514 380.498,46.453 				"/>
				<path style="fill:#FE00FE;" d="M400.253,48.699c0-1.241-1.006-2.246-2.246-2.246h-8.503l-29.14,28.619
					c0.279,0.124,0.585,0.196,0.91,0.196h12.354l26.626-25.908V48.699z"/>
				<path style="fill:#1C1C1C;" d="M398.007,75.768h-36.734c-1.514,0-2.746-1.232-2.746-2.746V48.699
					c0-1.515,1.232-2.747,2.746-2.747h36.734c1.515,0,2.747,1.232,2.747,2.747v24.322C400.753,74.536,399.521,75.768,398.007,75.768
					z M361.273,46.953c-0.963,0-1.746,0.784-1.746,1.747v24.322c0,0.963,0.783,1.746,1.746,1.746h36.734
					c0.963,0,1.747-0.783,1.747-1.746V48.699c0-0.963-0.784-1.747-1.747-1.747H361.273z"/>
				<circle style="fill:#1C1C1C;" cx="390.034" cy="88.486" r="1.664"/>
				<circle style="fill:#1C1C1C;" cx="384.923" cy="88.486" r="1.664"/>
			</g>
		</g>
	</g>
	<g>
		<rect x="358.096" y="352.579" style="fill:#1C1C1C;" width="58.837" height="15.377"/>
		<g>
			<g>
				<path style="fill:#FE00FE;" d="M401.531,308.611v31.461c0,1.469-1.191,2.659-2.659,2.659h-31.851
					c-1.469,0-2.659-1.191-2.659-2.659v-41.454c0-1.469,1.191-2.659,2.659-2.659h21.507L401.531,308.611z"/>
				<path style="fill:#1C1C1C;" d="M398.872,343.731h-31.851c-2.018,0-3.659-1.642-3.659-3.659v-41.454
					c0-2.018,1.642-3.659,3.659-3.659h21.913l13.597,13.229v31.884C402.531,342.09,400.89,343.731,398.872,343.731z
					 M367.021,296.959c-0.915,0-1.659,0.744-1.659,1.659v41.454c0,0.915,0.744,1.659,1.659,1.659h31.851
					c0.915,0,1.659-0.744,1.659-1.659v-31.04l-12.41-12.073H367.021z"/>
				<path style="fill:#1C1C1C;" d="M401.418,309.757l-10.497-0.368c-1.944-0.068-3.502-1.646-3.546-3.591l-0.221-9.67l1.999-0.045
					l0.221,9.67c0.021,0.887,0.731,1.607,1.618,1.638l10.497,0.368L401.418,309.757z"/>
				<g>
					<rect x="368.275" y="303.465" style="fill:#1C1C1C;" width="18.204" height="1"/>
					<rect x="368.275" y="309.483" style="fill:#1C1C1C;" width="18.204" height="1"/>
					<rect x="368.275" y="315.502" style="fill:#1C1C1C;" width="29.344" height="1"/>
					<rect x="368.275" y="321.522" style="fill:#1C1C1C;" width="29.344" height="1"/>
					<rect x="368.275" y="327.54" style="fill:#1C1C1C;" width="29.344" height="1"/>
					<rect x="368.275" y="333.559" style="fill:#1C1C1C;" width="29.344" height="1"/>
				</g>
			</g>
			<g>
				<path style="fill:#FE00FE;" d="M361.491,364.21h-0.862v-4.309h0.862v-0.862h4.308v0.862h0.862v4.309h-0.862v0.861h-4.308V364.21
					z M364.938,359.901h-2.585v4.309h2.585V359.901z"/>
				<path style="fill:#FE00FE;" d="M369.108,359.901h-0.862v-0.862h1.723v0.862h0.862v5.17h-1.723V359.901z M370.831,359.039h2.585
					v0.862h0.862v5.17h-1.723v-5.17h-1.724V359.039z"/>
				<path style="fill:#FE00FE;" d="M376.725,359.039h4.308v0.862h0.862v1.724h-4.309v2.585h2.586v-0.862h1.723v0.862h-0.862v0.861
					h-4.308v-0.861h-0.862v-4.309h0.862V359.039z M377.586,360.763h2.586v-0.861h-2.586V360.763z"/>
				<path style="fill:#FE00FE;" d="M386.066,363.348h1.724v1.724h-1.724V363.348z"/>
				<path style="fill:#FE00FE;" d="M391.098,359.039h1.723v-1.723h0.862v-0.862h0.862v2.585h1.723v0.862h-1.723v4.309h0.862v-0.862
					h1.723v0.862h-0.862v0.861h-2.585v-0.861h-0.862v-4.309h-1.723V359.039z"/>
				<path style="fill:#FE00FE;" d="M398.715,359.039h1.723v0.862h0.862v0.861h0.861v-0.861h0.862v-0.862h1.723v0.862h-0.861v0.861
					h-0.861v2.585h0.861v0.862h0.861v0.861h-1.723v-0.861h-0.862v-0.862h-0.861v0.862h-0.862v0.861h-1.723v-0.861h0.862v-0.862
					h0.861v-2.585h-0.861v-0.861h-0.862V359.039z"/>
				<path style="fill:#FE00FE;" d="M406.333,359.039h1.723v-1.723h0.862v-0.862h0.861v2.585h1.724v0.862h-1.724v4.309h0.862v-0.862
					h1.723v0.862h-0.861v0.861h-2.585v-0.861h-0.862v-4.309h-1.723V359.039z"/>
			</g>
		</g>
	</g>
	<g>
		<g>
			<path style="fill:#FE00FE;" d="M457.579,294.144c0,0-15.79,5.758-15.751,7.232c0.04,1.474,7.956,2.964,8.367,4.188
				c0.411,1.225-1.589,2.337-1.589,2.337s3.323,7.807,5.151,7.891c1.828,0.084,16.781,0.682,16.382-1.112
				c-0.399-1.794,0.199-15.551,0.199-15.551L457.579,294.144z"/>
			<path style="fill:#1C1C1C;" d="M453.998,316.796c-0.112,0-0.208-0.001-0.286-0.005c-2.137-0.099-4.692-5.367-6.025-8.499
				l-0.352-0.828l0.787-0.438c0.549-0.31,1.044-0.814,1.12-1.057c-0.495-0.351-2.13-0.917-3.239-1.302
				c-3.278-1.138-5.135-1.851-5.174-3.265c-0.018-0.713-0.06-2.194,16.408-8.199l0.354-0.129l12.974,5.067
				c6.54,0.536,8.922,4.66,8.971,8.051c0.059,4.134-3.179,8.861-9.295,9.481C468.552,315.845,456.648,316.796,453.998,316.796z
				 M449.853,308.258c1.49,3.33,3.294,6.298,4.008,6.544c1.646,0.059,14.094-0.907,16.178-1.117
				c4.931-0.499,7.542-4.218,7.496-7.462c-0.038-2.695-1.968-5.712-7.269-6.098l-0.292-0.065l-12.407-4.847
				c-5.956,2.185-12.594,4.949-14.419,6.176c0.783,0.443,2.438,1.018,3.509,1.39c2.797,0.97,4.155,1.48,4.486,2.469
				C451.589,306.574,450.614,307.653,449.853,308.258z"/>
			<g>
				<path style="fill:#1C1C1C;" d="M467.647,296.555c-1.618-1.094-2.494-2.859-2.058-4.534c0.586-2.252,3.32-3.497,6.095-2.774
					c2.775,0.723,4.554,3.143,3.968,5.395c-0.201,0.774-0.669,1.417-1.292,1.914h7.677c0.023-0.079,0.054-0.153,0.074-0.232
					c1.514-5.814-2.409-11.886-8.745-13.536c-6.336-1.65-12.722,1.738-14.236,7.552c-0.55,2.114-0.374,4.259,0.367,6.216H467.647z"
					/>
			</g>
			<g>
				<path style="fill:#1C1C1C;" d="M482.158,347.572H452.49c-1.542,0-2.825-1.185-2.947-2.722l-2.957-37.096
					c-0.094-1.18,0.838-2.19,2.023-2.19h37.431c1.184,0,2.117,1.01,2.023,2.19l-2.957,37.096
					C484.983,346.387,483.7,347.572,482.158,347.572z"/>
			</g>
			<g>
				<path style="fill:#1C1C1C;" d="M490.461,309.282l-44.941-11.702c-0.967-0.252-1.546-1.24-1.295-2.206l2.03-7.796
					c0.252-0.967,1.239-1.546,2.206-1.295l44.941,11.702c0.967,0.252,1.546,1.24,1.295,2.206l-2.03,7.796
					C492.416,308.954,491.428,309.534,490.461,309.282z"/>
			</g>
			<g>
				<path style="fill:#FE00FE;" d="M461.762,344.346h-3.337c-1.346,0-2.518-0.911-2.606-2.041l-2.062-26.513
					c-0.124-1.597,1.111-2.926,2.748-2.926h4.057c1.636,0,3.004,1.329,3.038,2.926l0.566,26.513
					C464.19,343.435,463.108,344.346,461.762,344.346z"/>
				<path style="fill:#FE00FE;" d="M476.223,344.346h-3.337c-1.346,0-2.428-0.911-2.404-2.041l0.566-26.513
					c0.034-1.597,1.401-2.926,3.038-2.926h4.057c1.636,0,2.872,1.329,2.748,2.926l-2.062,26.513
					C478.741,343.435,477.569,344.346,476.223,344.346z"/>
			</g>
		</g>
		<g>
			<path style="fill:#1C1C1C;" d="M451.343,360.433h1.723v-1.723h0.862v-0.862h0.861v2.585h1.724v0.862h-1.724v4.309h0.862v-0.862
				h1.723v0.862h-0.861v0.861h-2.585v-0.861h-0.862v-4.309h-1.723V360.433z"/>
			<path style="fill:#1C1C1C;" d="M462.406,362.156h-0.861v3.447h0.861v0.861h-3.446v-0.861h0.861v-4.309h-0.861v-0.862h1.723v0.862
				h0.862v-0.862h2.585v0.862h0.861v1.724h-1.723v-1.724h-0.862V362.156z"/>
			<path style="fill:#1C1C1C;" d="M470.023,366.465h-2.585v-0.861h-0.861v-2.585h0.861v-0.862h2.585v-0.861h-2.585v-0.862h3.447
				v0.862h0.861v4.309h0.861v0.861h-1.723v-0.861h-0.855l-0.007-0.007v-2.578H468.3v2.585h1.724V366.465z"/>
			<path style="fill:#1C1C1C;" d="M478.503,361.295h-2.585v0.861h0.861v0.862h1.724v0.861h0.861v0.861h0.862v0.862h-0.862v0.861
				h-4.308v-0.861h-0.862v-0.862h1.724v0.862h2.585v-0.862h-0.861v-0.861h-1.724v-0.861h-0.861v-0.862h-0.862v-0.861h0.862v-0.862
				h4.308v0.862h0.862v0.861h-1.724V361.295z"/>
			<path style="fill:#1C1C1C;" d="M484.396,366.465h-2.585v-0.861h0.862v-6.893h-0.862v-0.862h2.585v3.447h0.862v0.861h-0.862
				V366.465z M485.259,360.433h1.723v0.862h0.862v5.17h-1.724v-5.17h-0.861V360.433z"/>
		</g>
	</g>
	<g>
		<g>
			<path style="fill:#1C1C1C;" d="M490.616,90.531h-46.653c-1.576,0-2.853-1.277-2.853-2.853V56.787
				c0-1.576,1.277-2.853,2.853-2.853h46.653c1.576,0,2.853,1.277,2.853,2.853v30.891C493.469,89.253,492.191,90.531,490.616,90.531z
				"/>
			<path style="fill:#FE00FE;" d="M467.276,79.35c-0.779,0-1.559-0.291-2.169-0.873L441.16,55.602l1.381-1.446l23.947,22.874
				c0.447,0.426,1.143,0.422,1.584-0.007l23.755-23.069l1.393,1.435l-23.755,23.069C468.853,79.052,468.065,79.35,467.276,79.35z"/>
			
				<rect x="481.591" y="69.22" transform="matrix(0.6967 -0.7174 0.7174 0.6967 87.7846 370.9855)" style="fill:#FE00FE;" width="1.999" height="24.93"/>
			
				<rect x="439.301" y="80.629" transform="matrix(0.7233 -0.6906 0.6906 0.7233 68.6542 334.5804)" style="fill:#FE00FE;" width="24.98" height="2"/>
			<path style="fill:#1C1C1C;" d="M490.616,91.531h-46.654c-2.124,0-3.853-1.729-3.853-3.853V56.787
				c0-2.125,1.729-3.853,3.853-3.853h46.654c2.124,0,3.853,1.729,3.853,3.853v30.891C494.469,89.802,492.74,91.531,490.616,91.531z
				 M443.962,54.934c-1.021,0-1.853,0.831-1.853,1.853v30.891c0,1.022,0.831,1.853,1.853,1.853h46.654
				c1.022,0,1.853-0.831,1.853-1.853V56.787c0-1.022-0.831-1.853-1.853-1.853H443.962z"/>
		</g>
		<g>
			<path style="fill:#FE00FE;" d="M446.324,105.826h-0.861v3.447h-0.862v-3.447h-0.861v4.309h-1.724v-6.032h2.585v0.862h0.862
				v-0.862h1.723v0.862h0.862v5.17h-1.724V105.826z"/>
			<path style="fill:#FE00FE;" d="M450.495,104.103h4.308v0.862h0.862v1.724h-4.309v2.585h2.585v-0.862h1.724v0.862h-0.862v0.861
				h-4.308v-0.861h-0.862v-4.309h0.862V104.103z M451.356,105.826h2.585v-0.861h-2.585V105.826z"/>
			<path style="fill:#FE00FE;" d="M461.559,104.965h-2.585v0.861h0.861v0.862h1.724v0.861h0.861v0.861h0.862v0.862h-0.862v0.861
				h-4.308v-0.861h-0.862v-0.862h1.724v0.862h2.585v-0.862h-0.861v-0.861h-1.724v-0.861h-0.861v-0.862h-0.862v-0.861h0.862v-0.862
				h4.308v0.862h0.862v0.861h-1.724V104.965z"/>
			<path style="fill:#FE00FE;" d="M469.177,104.965h-2.586v0.861h0.862v0.862h1.724v0.861h0.861v0.861h0.861v0.862h-0.861v0.861
				h-4.309v-0.861h-0.861v-0.862h1.723v0.862h2.586v-0.862h-0.862v-0.861h-1.724v-0.861h-0.861v-0.862h-0.861v-0.861h0.861v-0.862
				h4.309v0.862h0.861v0.861h-1.723V104.965z"/>
			<path style="fill:#FE00FE;" d="M475.932,110.135h-2.585v-0.861h-0.861v-2.585h0.861v-0.862h2.585v-0.861h-2.585v-0.862h3.447
				v0.862h0.861v4.309h0.862v0.861h-1.724v-0.861h-0.855l-0.007-0.007v-2.578h-1.724v2.585h1.724V110.135z"/>
			<path style="fill:#FE00FE;" d="M483.549,104.972l0.007-0.007h0.855v-0.862h1.724v0.862h-0.862v6.894h-0.861v0.861h-3.447v-0.861
				h-0.861v-0.862h1.724v0.862h1.723v-1.724h-2.585v-0.861h-0.861v-4.309h0.861v-0.862h2.585v0.862h-1.723v4.309h1.723V104.972z"/>
			<path style="fill:#FE00FE;" d="M488.581,104.103h4.309v0.862h0.862v1.724h-4.309v2.585h2.585v-0.862h1.724v0.862h-0.862v0.861
				h-4.309v-0.861h-0.861v-4.309h0.861V104.103z M489.443,105.826h2.585v-0.861h-2.585V105.826z"/>
		</g>
	</g>
	<g>
		<g>
			<path style="fill:#FE00FE;" d="M404.835,189.61h-46.654c-1.576,0-2.853-1.277-2.853-2.853v-33.934
				c0-1.576,1.277-2.853,2.853-2.853h46.654c1.576,0,2.853,1.277,2.853,2.853v33.934C407.688,188.333,406.411,189.61,404.835,189.61
				z"/>
			<path style="fill:#1C1C1C;" d="M398.662,184.866h-34.307c-2.279,0-4.126-1.847-4.126-4.126v-21.899
				c0-2.279,1.847-4.126,4.126-4.126h34.307c2.279,0,4.126,1.847,4.126,4.126v21.899
				C402.788,183.018,400.941,184.866,398.662,184.866z"/>
			<g>
				<path style="fill:#FF00FF;" d="M386.286,160.003c-1.991,0-3.77,0.897-4.963,2.306c-1.193-1.409-2.972-2.306-4.962-2.306
					c-3.591,0-6.503,2.911-6.503,6.503c0,7.197,9.304,12.546,11.465,12.546s11.465-6.029,11.465-12.546
					C392.789,162.914,389.877,160.003,386.286,160.003z"/>
				<path style="fill:#1C1C1C;" d="M381.324,179.551c-2.501,0-11.965-5.55-11.965-13.045c0-3.861,3.141-7.003,7.002-7.003
					c1.872,0,3.651,0.747,4.963,2.067c1.312-1.32,3.091-2.067,4.962-2.067c3.861,0,7.003,3.142,7.003,7.003
					C393.289,173.532,383.596,179.551,381.324,179.551z M376.361,160.503c-3.309,0-6.002,2.693-6.002,6.003
					c0,6.906,9.204,12.045,10.965,12.045c1.96,0,10.965-5.859,10.965-12.045c0-3.31-2.693-6.003-6.003-6.003
					c-1.766,0-3.435,0.776-4.581,2.129l-0.381,0.451l-0.381-0.451C379.796,161.279,378.127,160.503,376.361,160.503z"/>
			</g>
			<path style="fill:#1C1C1C;" d="M398.662,185.366h-34.308c-2.551,0-4.626-2.075-4.626-4.626v-21.898
				c0-2.551,2.075-4.626,4.626-4.626h34.308c2.551,0,4.626,2.075,4.626,4.626v21.898
				C403.288,183.29,401.213,185.366,398.662,185.366z M364.354,155.215c-1.999,0-3.626,1.626-3.626,3.626v21.898
				c0,2,1.627,3.626,3.626,3.626h34.308c2,0,3.626-1.626,3.626-3.626v-21.898c0-1.999-1.626-3.626-3.626-3.626H364.354z"/>
			<path style="fill:#1C1C1C;" d="M404.835,190.61h-46.653c-2.124,0-3.853-1.729-3.853-3.853v-33.934
				c0-2.124,1.729-3.853,3.853-3.853h46.653c2.124,0,3.853,1.729,3.853,3.853v33.934C408.688,188.882,406.959,190.61,404.835,190.61
				z M358.182,150.971c-1.022,0-1.853,0.831-1.853,1.853v33.934c0,1.022,0.831,1.853,1.853,1.853h46.653
				c1.021,0,1.853-0.831,1.853-1.853v-33.934c0-1.022-0.831-1.853-1.853-1.853H358.182z"/>
		</g>
		<g>
			<path style="fill:#1C1C1C;" d="M366.829,200.357h2.585v0.862h0.862v4.309h-0.862v0.861h-2.585v1.724h0.862v0.861h-3.447v-0.861
				h0.862v-6.894h-0.862v-0.862h1.723v0.862h0.855l0.007,0.007v4.302h1.724v-4.309h-1.724V200.357z"/>
			<path style="fill:#1C1C1C;" d="M374.446,206.39h-2.585v-0.861h0.862v-6.894h-0.862v-0.862h2.585v3.447h0.862v0.861h-0.862V206.39
				z M375.308,200.357h1.723v0.862h0.862v5.17h-1.723v-5.17h-0.862V200.357z"/>
			<path style="fill:#1C1C1C;" d="M380.34,205.528h-0.862v-4.309h0.862v-0.862h4.308v0.862h0.862v4.309h-0.862v0.861h-4.308V205.528
				z M383.787,201.22h-2.585v4.309h2.585V201.22z"/>
			<path style="fill:#1C1C1C;" d="M387.096,200.357h1.723v-1.723h0.862v-0.862h0.862v2.585h1.723v0.862h-1.723v4.309h0.862v-0.862
				h1.724v0.862h-0.862v0.861h-2.585v-0.861h-0.862v-4.309h-1.723V200.357z"/>
			<path style="fill:#1C1C1C;" d="M395.575,205.528h-0.861v-4.309h0.861v-0.862h4.309v0.862h0.862v4.309h-0.862v0.861h-4.309
				V205.528z M399.022,201.22h-2.585v4.309h2.585V201.22z"/>
		</g>
	</g>
	<g>
		<path style="fill:#FE00FE;" d="M379.621,401.487l-27.258,47.212c-0.839,1.453,0.21,3.268,1.887,3.268h54.516
			c1.677,0,2.725-1.816,1.887-3.268l-27.258-47.212C382.556,400.034,380.46,400.034,379.621,401.487z"/>
		<path style="fill:#1C1C1C;" d="M408.767,452.968H354.25c-1.149,0-2.178-0.595-2.753-1.59c-0.575-0.995-0.575-2.184,0-3.179
			l27.258-47.213c0.575-0.995,1.603-1.589,2.753-1.589c1.149,0,2.178,0.594,2.753,1.589l27.258,47.213
			c0.574,0.995,0.574,2.183,0,3.179C410.945,452.373,409.916,452.968,408.767,452.968z M381.508,401.397
			c-0.205,0-0.714,0.058-1.021,0.589l-27.258,47.213c-0.308,0.532-0.102,1.002,0,1.179c0.102,0.178,0.407,0.59,1.021,0.59h54.517
			c0.614,0,0.918-0.412,1.02-0.59c0.103-0.177,0.308-0.646,0-1.179l-27.258-47.213C382.222,401.455,381.713,401.397,381.508,401.397
			z"/>
		<g>
			<path style="fill:#1C1C1C;" d="M375.215,419.909h3.075v-3.075h6.149v3.075h3.075v9.225h-3.075v9.226h-6.149v-9.226h-3.075
				V419.909z M378.29,441.434h6.149v6.15h-6.149V441.434z"/>
		</g>
	</g>
	<g>
		<g>
			<path style="fill:#1C1C1C;" d="M482.697,153.566h-28.808c-0.71,0-1.285-0.576-1.285-1.285v-3.716c0-0.71,0.576-1.285,1.285-1.285
				h28.808c0.71,0,1.285,0.576,1.285,1.285v3.716C483.982,152.99,483.406,153.566,482.697,153.566z"/>
			<g>
				<path style="fill:#1C1C1C;" d="M482.613,192.883h-28.641c-0.756,0-1.369,0.613-1.369,1.369v3.549
					c0,0.756,0.613,1.369,1.369,1.369h28.641c0.756,0,1.369-0.613,1.369-1.369v-3.549
					C483.982,193.496,483.369,192.883,482.613,192.883z"/>
			</g>
			<g>
				<path style="fill:#1C1C1C;" d="M481.463,193.883h-26.342v-8.178c0-2.679,1.043-5.197,2.938-7.091l2.69-2.691
					c0.349-0.349,0.66-0.619,0.935-0.855c0.774-0.669,0.935-0.808,0.935-1.844c0-1.036-0.161-1.175-0.936-1.844
					c-0.273-0.236-0.585-0.506-0.934-0.854l-2.69-2.69c-1.895-1.894-2.938-4.413-2.938-7.091v-8.178h26.342v8.178
					c0,2.679-1.043,5.197-2.936,7.091l-2.691,2.691c-0.349,0.349-0.66,0.619-0.934,0.855c-0.774,0.668-0.936,0.808-0.936,1.843
					c0,1.037,0.161,1.176,0.936,1.845c0.273,0.236,0.586,0.506,0.934,0.854l2.69,2.691c1.895,1.894,2.938,4.413,2.938,7.091V193.883
					z M457.121,191.883h22.342v-6.178c0-2.145-0.835-4.161-2.352-5.677l-2.69-2.69c-0.309-0.308-0.585-0.546-0.826-0.755
					c-0.874-0.755-1.629-1.407-1.629-3.358c0-1.952,0.755-2.604,1.629-3.358c0.241-0.209,0.518-0.447,0.826-0.755l2.691-2.691
					c1.516-1.516,2.351-3.532,2.351-5.677v-6.178h-22.342v6.178c0,2.145,0.835,4.161,2.352,5.677l2.69,2.69
					c0.308,0.308,0.585,0.546,0.826,0.754c0.875,0.755,1.63,1.407,1.63,3.358c0,1.952-0.755,2.604-1.629,3.358
					c-0.242,0.209-0.518,0.447-0.827,0.755l-2.69,2.69c-1.517,1.517-2.352,3.533-2.352,5.677V191.883z"/>
				<path style="fill:#1C1C1C;" d="M458.96,192.883v-3.343c0-3.774,2.061-7.18,5.228-8.641h0c2.401-1.108,5.099-1.149,7.526-0.115
					l0.486,0.207c3.284,1.399,5.448,4.87,5.448,8.739v3.154H458.96z"/>
				<path style="fill:#1C1C1C;" d="M461.78,165.761l3.658,3.575c1.74,1.7,4.516,1.706,6.263,0.014l3.438-3.33L461.78,165.761z"/>
				<path style="fill:#1C1C1C;" d="M478.149,192.883h-1v-3.154c0-3.641-2.067-6.968-5.145-8.278l-0.486-0.207
					c-2.309-0.984-4.838-0.945-7.121,0.109c-2.999,1.384-4.937,4.598-4.937,8.187v3.343h-1v-3.343c0-3.978,2.166-7.548,5.518-9.095
					c2.545-1.173,5.358-1.216,7.933-0.121l0.486,0.207c3.494,1.488,5.752,5.099,5.752,9.198V192.883z"/>
				<path style="fill:#1C1C1C;" d="M468.577,171.126c-1.256,0-2.512-0.478-3.488-1.432l-3.658-3.575
					c-0.147-0.143-0.191-0.361-0.111-0.551c0.079-0.189,0.252-0.304,0.471-0.307l13.359,0.259c0.202,0.004,0.382,0.129,0.455,0.317
					c0.074,0.188,0.028,0.402-0.117,0.542l-3.438,3.33C471.075,170.653,469.826,171.126,468.577,171.126z M463.032,166.286
					l2.756,2.693c1.557,1.521,4.002,1.527,5.566,0.012l2.574-2.494L463.032,166.286z"/>
				<rect x="467.381" y="170.37" style="fill:#1C1C1C;" width="2" height="11.613"/>
				<path style="fill:#1C1C1C;" d="M482.696,154.066h-28.808c-0.985,0-1.786-0.801-1.786-1.786v-3.716
					c0-0.984,0.801-1.786,1.786-1.786h28.808c0.984,0,1.785,0.801,1.785,1.786v3.716
					C484.481,153.265,483.681,154.066,482.696,154.066z M453.889,147.779c-0.434,0-0.786,0.353-0.786,0.786v3.716
					c0,0.433,0.353,0.786,0.786,0.786h28.808c0.433,0,0.785-0.353,0.785-0.786v-3.716c0-0.433-0.353-0.786-0.785-0.786H453.889z"/>
				<path style="fill:#1C1C1C;" d="M481.463,193.883h-26.342v-8.178c0-2.679,1.043-5.197,2.938-7.091l2.69-2.691
					c0.349-0.349,0.66-0.619,0.935-0.855c0.774-0.669,0.935-0.808,0.935-1.844c0-1.036-0.161-1.175-0.936-1.844
					c-0.273-0.236-0.585-0.506-0.934-0.854l-2.69-2.69c-1.895-1.894-2.938-4.413-2.938-7.091v-8.178h26.342v8.178
					c0,2.679-1.043,5.197-2.936,7.091l-2.691,2.691c-0.349,0.349-0.66,0.619-0.934,0.855c-0.774,0.668-0.936,0.808-0.936,1.843
					c0,1.037,0.161,1.176,0.936,1.845c0.273,0.236,0.586,0.506,0.934,0.854l2.69,2.691c1.895,1.894,2.938,4.413,2.938,7.091V193.883
					z M457.121,191.883h22.342v-6.178c0-2.145-0.835-4.161-2.352-5.677l-2.69-2.69c-0.309-0.308-0.585-0.546-0.826-0.755
					c-0.874-0.755-1.629-1.407-1.629-3.358c0-1.952,0.755-2.604,1.629-3.358c0.241-0.209,0.518-0.447,0.826-0.755l2.691-2.691
					c1.516-1.516,2.351-3.532,2.351-5.677v-6.178h-22.342v6.178c0,2.145,0.835,4.161,2.352,5.677l2.69,2.69
					c0.308,0.308,0.585,0.546,0.826,0.754c0.875,0.755,1.63,1.407,1.63,3.358c0,1.952-0.755,2.604-1.629,3.358
					c-0.242,0.209-0.518,0.447-0.827,0.755l-2.69,2.69c-1.517,1.517-2.352,3.533-2.352,5.677V191.883z"/>
			</g>
			<g>
				<path style="fill:#1C1C1C;" d="M482.613,199.669h-28.642c-1.03,0-1.869-0.838-1.869-1.869v-3.548
					c0-1.031,0.839-1.869,1.869-1.869h28.642c1.03,0,1.868,0.838,1.868,1.869v3.548
					C484.481,198.831,483.644,199.669,482.613,199.669z M453.972,193.383c-0.479,0-0.869,0.39-0.869,0.869v3.548
					c0,0.479,0.39,0.869,0.869,0.869h28.642c0.479,0,0.868-0.39,0.868-0.869v-3.548c0-0.479-0.39-0.869-0.868-0.869H453.972z"/>
			</g>
		</g>
	</g>
	<g>
		<path style="fill:#1D1D1B;" d="M744.38,439.168l10.845-2.402c-0.041-0.149-0.057-0.304-0.057-0.464
			c0-0.139,0.01-0.273,0.041-0.402l-10.922-2.026c-1.747-0.325-3.541-0.33-5.288-0.01l-10.752,1.938
			c-1.118,0.206-1.093,1.825,0.036,1.984l10.808,1.577C740.849,439.617,742.643,439.555,744.38,439.168z"/>
		<path style="fill:#1D1D1B;" d="M731.427,423.072l8.577,6.768c1.397,1.103,2.979,1.938,4.675,2.474l10.587,3.345
			c0.088-0.284,0.232-0.541,0.423-0.763l-8.443-7.211c-1.35-1.155-2.902-2.057-4.577-2.654l-10.278-3.696
			C731.319,420.948,730.535,422.365,731.427,423.072z"/>
		<path style="fill:#1D1D1B;" d="M747.545,445.255l8.19-7.499c-0.196-0.211-0.351-0.469-0.443-0.747l-10.468,3.706
			c-1.68,0.593-3.232,1.49-4.587,2.634l-8.34,7.056c-0.871,0.737-0.036,2.124,1.021,1.706l10.149-4.046
			C744.715,447.41,746.235,446.457,747.545,445.255z"/>
		<path style="fill:#1D1D1B;" d="M745.555,422.046c0.655,1.649,1.608,3.17,2.809,4.479l7.5,8.19c0.211-0.196,0.469-0.35,0.747-0.443
			l-3.706-10.468c-0.593-1.675-1.49-3.232-2.634-4.587l-7.056-8.34c-0.737-0.871-2.124-0.036-1.706,1.021L745.555,422.046z"/>
		<path style="fill:#1D1D1B;" d="M755.915,437.931l-7.211,8.443c-1.155,1.35-2.057,2.902-2.654,4.577l-3.696,10.278
			c-0.387,1.072,1.031,1.855,1.737,0.964l6.768-8.577c1.098-1.397,1.938-2.979,2.474-4.675l3.34-10.587
			C756.389,438.266,756.132,438.117,755.915,437.931z"/>
		<path style="fill:#1D1D1B;" d="M756.853,434.205c0.149-0.041,0.304-0.057,0.464-0.057c0.139,0,0.273,0.015,0.402,0.041
			l2.026-10.922c0.325-1.747,0.33-3.541,0.01-5.288l-1.938-10.752c-0.206-1.119-1.825-1.093-1.984,0.036l-1.577,10.809
			c-0.253,1.758-0.191,3.551,0.196,5.288L756.853,434.205z"/>
		<path style="fill:#1D1D1B;" d="M757.786,438.395c-0.149,0.041-0.309,0.057-0.469,0.057c-0.134,0-0.268-0.01-0.397-0.041
			l-2.026,10.922c-0.325,1.747-0.33,3.541-0.01,5.288l1.938,10.752c0.206,1.119,1.819,1.093,1.984-0.036l1.577-10.808
			c0.252-1.758,0.191-3.551-0.196-5.288L757.786,438.395z"/>
		<path style="fill:#1D1D1B;" d="M758.724,434.669l7.211-8.443c1.155-1.351,2.057-2.902,2.654-4.572l3.696-10.283
			c0.387-1.072-1.031-1.856-1.737-0.964l-6.768,8.577c-1.103,1.397-1.938,2.979-2.474,4.675l-3.345,10.592
			C758.245,434.334,758.508,434.483,758.724,434.669z"/>
		<path style="fill:#1D1D1B;" d="M769.084,450.554c-0.66-1.649-1.608-3.17-2.809-4.479l-7.5-8.19
			c-0.211,0.196-0.469,0.35-0.747,0.443l3.706,10.468c0.593,1.68,1.484,3.232,2.634,4.587l7.056,8.34
			c0.737,0.871,2.123,0.036,1.701-1.021L769.084,450.554z"/>
		<path style="fill:#1D1D1B;" d="M767.095,427.344l-8.19,7.5c0.196,0.211,0.35,0.469,0.443,0.747l10.468-3.706
			c1.675-0.593,3.232-1.484,4.587-2.634l8.34-7.056c0.871-0.737,0.036-2.124-1.021-1.701l-10.149,4.041
			C769.924,425.195,768.404,426.143,767.095,427.344z"/>
		<path style="fill:#1D1D1B;" d="M783.212,449.529l-8.577-6.768c-1.397-1.098-2.979-1.938-4.675-2.474l-10.587-3.345
			c-0.088,0.283-0.232,0.541-0.423,0.763l8.443,7.211c1.35,1.155,2.902,2.057,4.577,2.654l10.278,3.696
			C783.32,451.652,784.104,450.235,783.212,449.529z"/>
		<path style="fill:#1D1D1B;" d="M786.356,434.813l-10.808-1.572c-1.758-0.258-3.551-0.191-5.288,0.191l-10.845,2.402
			c0.041,0.15,0.057,0.309,0.057,0.469c0,0.134-0.01,0.268-0.041,0.397l10.922,2.026c1.747,0.325,3.541,0.33,5.288,0.01
			l10.752-1.938C787.511,436.591,787.485,434.978,786.356,434.813z"/>
	</g>
	<g>
		<g>
			<path style="fill:#1D1D1B;" d="M760.028,367.809L760.028,367.809l0.006,15.034c0.001,2.989-2.421,5.413-5.41,5.414l0,0
				l-0.006-15.034C754.617,370.234,757.039,367.81,760.028,367.809z"/>
		</g>
		<g>
			<path style="fill:#1D1D1B;" d="M755.977,368.375L755.977,368.375l-10.626,10.635c-2.113,2.114-5.539,2.116-7.654,0.003l0,0
				l10.626-10.635C750.436,366.263,753.863,366.262,755.977,368.375z"/>
		</g>
		<g>
			<path style="fill:#1D1D1B;" d="M752.713,365.91L752.713,365.91l-15.034,0.006c-2.989,0.001-5.413-2.421-5.414-5.41v0
				l15.034-0.006C750.288,360.499,752.712,362.921,752.713,365.91z"/>
		</g>
		<g>
			<path style="fill:#1D1D1B;" d="M752.148,361.86L752.148,361.86l-10.635-10.626c-2.114-2.113-2.116-5.539-0.003-7.654v0
				l10.635,10.626C754.259,356.319,754.26,359.746,752.148,361.86z"/>
		</g>
		<g>
			<path style="fill:#1D1D1B;" d="M754.612,358.596L754.612,358.596l-0.006-15.034c-0.001-2.989,2.421-5.413,5.41-5.414l0,0
				l0.006,15.034C760.023,356.171,757.601,358.595,754.612,358.596z"/>
		</g>
		<g>
			<path style="fill:#1D1D1B;" d="M758.662,358.03L758.662,358.03l10.626-10.635c2.113-2.114,5.539-2.116,7.654-0.003v0
				l-10.626,10.635C764.203,360.142,760.777,360.143,758.662,358.03z"/>
		</g>
		<g>
			<path style="fill:#1D1D1B;" d="M761.926,360.495L761.926,360.495l15.034-0.006c2.989-0.001,5.413,2.421,5.414,5.41l0,0
				l-15.034,0.006C764.351,365.906,761.927,363.484,761.926,360.495z"/>
		</g>
		<g>
			<path style="fill:#1D1D1B;" d="M762.492,364.545L762.492,364.545l10.635,10.626c2.115,2.113,2.116,5.539,0.003,7.654l0,0
				l-10.635-10.626C760.38,370.086,760.379,366.659,762.492,364.545z"/>
		</g>
	</g>
	<path style="fill:#1D1D1B;" d="M779.996,305.993c-3.157,0.986-7.094,1.543-11.819,1.465c0.078,4.725-0.479,8.662-1.465,11.819
		c-2.926-1.535-6.107-3.929-9.392-7.325c-3.285,3.396-6.467,5.79-9.392,7.325c-0.986-3.157-1.543-7.094-1.461-11.819
		c-4.725,0.078-8.666-0.479-11.823-1.465c1.535-2.926,3.929-6.108,7.325-9.392c-3.396-3.285-5.79-6.466-7.325-9.392
		c3.157-0.982,7.098-1.543,11.823-1.461c-0.083-4.725,0.479-8.666,1.461-11.823c2.926,1.535,6.107,3.929,9.392,7.325
		c3.285-3.396,6.466-5.79,9.392-7.325c0.986,3.157,1.543,7.098,1.465,11.823c4.725-0.082,8.662,0.475,11.819,1.461
		c-1.535,2.926-3.929,6.108-7.325,9.392C776.067,299.886,778.461,303.068,779.996,305.993z"/>
	<g>
		<path style="fill:#1C1C1C;" d="M754.874,162.616H534.252c-2.572,0-4.657-2.085-4.657-4.657V41.946
			c0-2.572,2.085-4.657,4.657-4.657h220.622c2.572,0,4.657,2.085,4.657,4.657V157.96
			C759.531,160.531,757.446,162.616,754.874,162.616z"/>
		<path style="fill:#1C1C1C;" d="M748.447,156.767H527.825c-2.572,0-4.657-2.085-4.657-4.657V36.097
			c0-2.572,2.085-4.657,4.657-4.657h220.622c2.572,0,4.657,2.085,4.657,4.657v116.014
			C753.103,154.683,751.019,156.767,748.447,156.767z"/>
		<path style="fill:#FE00FE;" d="M747.123,153.521H529.148c-1.462,0-2.648-1.185-2.648-2.648V58.059
			c0-1.462,1.185-2.647,2.648-2.647h217.975c1.462,0,2.647,1.185,2.647,2.647v92.814
			C749.771,152.336,748.586,153.521,747.123,153.521z"/>
		<rect x="537.664" y="69.438" style="fill:#1C1C1C;" width="11.796" height="6.279"/>
		<g>
			<path style="fill:#FE00FE;" d="M749.781,58.059v92.816c0,1.464-1.185,2.642-2.65,2.642h-4.492V55.41h4.492
				C748.596,55.41,749.781,56.595,749.781,58.059z"/>
		</g>
		<g>
			<path style="fill:#FE00FE;" d="M742.64,62.712v90.805h4.492c1.464,0,2.65-1.178,2.65-2.642V62.712H742.64z"/>
			<g>
				<rect x="742.64" y="91.02" style="fill:#FFA500;" width="7.141" height="22.723"/>
				<rect x="742.64" y="91.02" style="fill:#FE00FE;" width="7.141" height="22.723"/>
			</g>
			<g>
				<path style="fill:#1C1C1C;" d="M750.281,114.243h-8.142V90.52h8.142V114.243z M743.14,113.243h6.142V91.52h-6.142V113.243z"/>
				<path style="fill:#1C1C1C;" d="M750.281,114.243h-8.142V90.52h8.142V114.243z M743.14,113.243h6.142V91.52h-6.142V113.243z"/>
			</g>
			<g>
				<path style="fill:#1C1C1C;" d="M746.21,99.766c-0.664,0-1.203-0.539-1.203-1.203c0-0.665,0.539-1.203,1.203-1.203
					c0.665,0,1.203,0.539,1.203,1.203C747.414,99.228,746.875,99.766,746.21,99.766z"/>
				<path style="fill:#1C1C1C;" d="M746.21,103.627c-0.664,0-1.203-0.539-1.203-1.203c0-0.665,0.539-1.203,1.203-1.203
					c0.665,0,1.203,0.539,1.203,1.203C747.414,103.088,746.875,103.627,746.21,103.627z"/>
				<path style="fill:#1C1C1C;" d="M746.21,107.487c-0.664,0-1.203-0.539-1.203-1.203c0-0.665,0.539-1.203,1.203-1.203
					c0.665,0,1.203,0.539,1.203,1.203C747.414,106.949,746.875,107.487,746.21,107.487z"/>
			</g>
		</g>
		<path style="fill:#FE00FE;" d="M526.499,146.376v4.499c0,1.464,1.185,2.642,2.65,2.642h4.529v-7.142H526.499z"/>
		<rect x="533.678" y="146.376" style="fill:#FE00FE;" width="208.908" height="7.142"/>
		<path style="fill:#FE00FE;" d="M742.585,146.376v7.142h4.537c1.464,0,2.649-1.178,2.649-2.642v-4.499H742.585z"/>
		<g>
			<rect x="742.14" y="55.41" style="fill:#1C1C1C;" width="1" height="98.108"/>
			<rect x="526.499" y="145.876" style="fill:#1C1C1C;" width="223.273" height="1"/>
			<polygon style="fill:#1C1C1C;" points="534.213,153.574 533.213,153.574 533.213,146.876 526.515,146.876 526.515,145.876 
				534.213,145.876 			"/>
			<polygon style="fill:#1C1C1C;" points="749.836,63.1 742.138,63.1 742.138,55.402 743.138,55.402 743.138,62.1 749.836,62.1 			
				"/>
		</g>
		<rect x="651.879" y="146.376" style="fill:#FE00FE;" width="35.382" height="7.142"/>
		<path style="fill:#1C1C1C;" d="M687.761,154.018h-36.382v-8.142h36.382V154.018z M652.379,153.018h34.382v-6.142h-34.382V153.018z
			"/>
		<path style="fill:#1C1C1C;" d="M746.909,154.021H529.363c-1.854,0-3.362-1.508-3.362-3.362V58.274
			c0-1.854,1.509-3.362,3.362-3.362h217.546c1.854,0,3.361,1.508,3.361,3.362v92.385
			C750.271,152.513,748.763,154.021,746.909,154.021z M529.363,55.912c-1.303,0-2.362,1.06-2.362,2.362v92.385
			c0,1.302,1.06,2.362,2.362,2.362h217.546c1.302,0,2.361-1.06,2.361-2.362V58.274c0-1.302-1.06-2.362-2.361-2.362H529.363z"/>
		<g>
			<g>
				<g>
					<g>
						<g>
							<path style="fill:#FE00FE;" d="M742.476,52.013h-7.87c-1.827,0-3.309-1.481-3.309-3.309v-7.599
								c0-1.827,1.481-3.309,3.309-3.309h7.87c1.827,0,3.309,1.481,3.309,3.309v7.599C745.784,50.532,744.303,52.013,742.476,52.013
								z"/>
						</g>
					</g>
				</g>
				<g>
					<g>
						
							<rect x="737.541" y="40.144" transform="matrix(0.7071 -0.7071 0.7071 0.7071 184.468 535.445)" style="fill:#1C1C1C;" width="2" height="9.834"/>
						
							<rect x="733.623" y="44.061" transform="matrix(0.7071 -0.7071 0.7071 0.7071 184.4677 535.4447)" style="fill:#1C1C1C;" width="9.834" height="2"/>
					</g>
				</g>
			</g>
			<g>
				<g>
					<g>
						<g>
							<path style="fill:#FE00FE;" d="M718.322,52.013h-7.87c-1.827,0-3.309-1.481-3.309-3.309v-7.599
								c0-1.827,1.481-3.309,3.309-3.309h7.87c1.827,0,3.309,1.481,3.309,3.309v7.599C721.631,50.532,720.15,52.013,718.322,52.013z
								"/>
						</g>
					</g>
				</g>
				<g>
					<rect x="710.662" y="47.801" style="fill:#1C1C1C;" width="7.45" height="2"/>
				</g>
			</g>
			<g>
				<g>
					<g>
						<g>
							<path style="fill:#FE00FE;" d="M694.169,52.013h-7.87c-1.827,0-3.309-1.481-3.309-3.309v-7.599
								c0-1.827,1.481-3.309,3.309-3.309h7.87c1.827,0,3.309,1.481,3.309,3.309v7.599C697.478,50.532,695.997,52.013,694.169,52.013
								z"/>
						</g>
					</g>
				</g>
				<g>
					<g>
						<path style="fill:#1C1C1C;" d="M694.819,49.721h-9.171v-9.17h9.171V49.721z M687.648,47.721h5.171v-5.17h-5.171V47.721z"/>
						<rect x="686.649" y="41.551" style="fill:#1C1C1C;" width="7.171" height="3.089"/>
					</g>
				</g>
			</g>
		</g>
		<polygon style="fill:#1C1C1C;" points="746.301,57.682 744.216,60.691 748.386,60.691 		"/>
		<polygon style="fill:#1C1C1C;" points="746.301,142.962 744.216,139.953 748.386,139.953 		"/>
		<polygon style="fill:#1C1C1C;" points="528.261,149.987 531.27,152.071 531.27,147.902 		"/>
		<polygon style="fill:#1C1C1C;" points="739.535,149.987 736.526,152.071 736.526,147.902 		"/>
		<g>
			<path style="fill:#1C1C1C;" d="M666.851,150.259c0,0.664-0.539,1.203-1.203,1.203c-0.665,0-1.203-0.539-1.203-1.203
				c0-0.665,0.539-1.203,1.203-1.203C666.312,149.056,666.851,149.594,666.851,150.259z"/>
			<path style="fill:#1C1C1C;" d="M670.712,150.259c0,0.664-0.539,1.203-1.203,1.203s-1.203-0.539-1.203-1.203
				c0-0.665,0.539-1.203,1.203-1.203S670.712,149.594,670.712,150.259z"/>
			<path style="fill:#1C1C1C;" d="M674.572,150.259c0,0.664-0.539,1.203-1.203,1.203c-0.664,0-1.203-0.539-1.203-1.203
				c0-0.665,0.539-1.203,1.203-1.203C674.033,149.056,674.572,149.594,674.572,150.259z"/>
		</g>
	</g>
	<g>
		<g>
			<path style="fill:#1C1C1C;" d="M713.371,372.298H539.157c-2.572,0-4.657-2.085-4.657-4.657V190.605
				c0-2.572,2.085-4.657,4.657-4.657h174.214c2.572,0,4.657,2.085,4.657,4.657v177.036
				C718.028,370.213,715.943,372.298,713.371,372.298z"/>
			<path style="fill:#1C1C1C;" d="M706.944,366.449H532.73c-2.572,0-4.657-2.085-4.657-4.657V184.756
				c0-2.572,2.085-4.657,4.657-4.657h174.214c2.572,0,4.657,2.085,4.657,4.657v177.036
				C711.6,364.364,709.516,366.449,706.944,366.449z"/>
			<path style="fill:#FE00FE;" d="M704.003,363.203H535.671c-2.355,0-4.265-1.91-4.265-4.265V208.336
				c0-2.355,1.909-4.265,4.265-4.265h168.332c2.355,0,4.265,1.909,4.265,4.265v150.602
				C708.268,361.293,706.358,363.203,704.003,363.203z"/>
			<g>
				<g>
					<g>
						<g>
							<g>
								<path style="fill:#FE00FE;" d="M700.973,200.672h-7.87c-1.827,0-3.309-1.481-3.309-3.309v-7.599
									c0-1.827,1.481-3.309,3.309-3.309h7.87c1.827,0,3.309,1.481,3.309,3.309v7.599
									C704.281,199.191,702.8,200.672,700.973,200.672z"/>
							</g>
						</g>
					</g>
					<g>
						<g>
							
								<rect x="696.038" y="188.803" transform="matrix(0.7071 -0.7071 0.7071 0.7071 67.1893 549.642)" style="fill:#1C1C1C;" width="2" height="9.834"/>
							
								<rect x="692.12" y="192.721" transform="matrix(0.7071 -0.7071 0.7071 0.7071 67.1765 549.6194)" style="fill:#1C1C1C;" width="9.834" height="2"/>
						</g>
					</g>
				</g>
				<g>
					<g>
						<g>
							<g>
								<path style="fill:#FE00FE;" d="M676.819,200.672h-7.87c-1.827,0-3.309-1.481-3.309-3.309v-7.599
									c0-1.827,1.481-3.309,3.309-3.309h7.87c1.827,0,3.309,1.481,3.309,3.309v7.599
									C680.128,199.191,678.647,200.672,676.819,200.672z"/>
							</g>
						</g>
					</g>
					<g>
						<rect x="669.159" y="196.46" style="fill:#1C1C1C;" width="7.45" height="2"/>
					</g>
				</g>
				<g>
					<g>
						<g>
							<g>
								<path style="fill:#FE00FE;" d="M652.666,200.672h-7.87c-1.827,0-3.309-1.481-3.309-3.309v-7.599
									c0-1.827,1.481-3.309,3.309-3.309h7.87c1.827,0,3.309,1.481,3.309,3.309v7.599
									C655.975,199.191,654.493,200.672,652.666,200.672z"/>
							</g>
						</g>
					</g>
					<g>
						<g>
							<path style="fill:#1C1C1C;" d="M653.316,198.38h-9.171v-9.17h9.171V198.38z M646.146,196.38h5.171v-5.17h-5.171V196.38z"/>
							<rect x="645.146" y="190.21" style="fill:#1C1C1C;" width="7.171" height="3.089"/>
						</g>
					</g>
				</g>
			</g>
		</g>
		<g>
			<g>
				<g>
					<path style="fill:#1C1C1C;" d="M645.547,353.505h-39.714c-2.027,0-3.671-1.643-3.671-3.671v-13.045
						c0-2.027,1.643-3.671,3.671-3.671h39.714c2.027,0,3.671,1.643,3.671,3.671v13.045
						C649.218,351.861,647.575,353.505,645.547,353.505z"/>
					<path style="fill:#FE00FE;" d="M642.334,349.636H602.62c-2.027,0-3.671-1.643-3.671-3.671V332.92
						c0-2.027,1.643-3.671,3.671-3.671h39.714c2.027,0,3.671,1.643,3.671,3.671v13.045
						C646.004,347.993,644.361,349.636,642.334,349.636z"/>
					<path style="fill:#1C1C1C;" d="M642.334,350.637h-39.715c-2.575,0-4.67-2.096-4.67-4.671V332.92c0-2.575,2.095-4.67,4.67-4.67
						h39.715c2.575,0,4.671,2.095,4.671,4.67v13.046C647.005,348.541,644.909,350.637,642.334,350.637z M602.619,330.25
						c-1.473,0-2.67,1.197-2.67,2.67v13.046c0,1.473,1.197,2.671,2.67,2.671h39.715c1.473,0,2.671-1.198,2.671-2.671V332.92
						c0-1.473-1.198-2.67-2.671-2.67H602.619z"/>
				</g>
			</g>
			<g>
				<path style="fill:#1C1C1C;" d="M617.656,336.402h0.645v-0.646h3.228v0.646h0.646v5.164h-0.646v0.646h-3.228v-0.646h-0.645
					V336.402z M620.884,336.402h-1.937v5.164h1.937V336.402z"/>
				<path style="fill:#1C1C1C;" d="M625.532,338.339h0.646v-0.646h1.291v0.646h-0.646v0.646h-0.646v1.291h0.646v0.646h0.646v1.291
					h-1.291v-1.291h-0.646v-0.646h-0.646v1.937h-1.936v-0.646h0.646v-5.164h-0.646v-0.646h1.936v3.228h0.646V338.339z"/>
			</g>
		</g>
		<g>
			<path style="fill:#FE00FE;" d="M682.642,240.994H560.473c-6.456,0-11.739-5.283-11.739-11.739l0,0
				c0-6.456,5.283-11.739,11.739-11.739h122.169c6.456,0,11.739,5.283,11.739,11.739l0,0
				C694.382,235.712,689.099,240.994,682.642,240.994z"/>
			<path style="fill:#1C1C1C;" d="M682.643,241.994H560.474c-7.024,0-12.739-5.715-12.739-12.739s5.715-12.739,12.739-12.739
				h122.169c7.024,0,12.739,5.714,12.739,12.739S689.667,241.994,682.643,241.994z M560.474,218.516
				c-5.922,0-10.739,4.817-10.739,10.739c0,5.922,4.817,10.739,10.739,10.739h122.169c5.922,0,10.739-4.817,10.739-10.739
				c0-5.921-4.817-10.739-10.739-10.739H560.474z"/>
		</g>
		<g>
			<g id="_x3C_Ïîâòîð_ïî_ñåòêå_x3E__00000076599150939101460360000005637598679504472736_">
				<path style="fill:#1C1C1C;" d="M561.18,234.519c-2.902,0-5.264-2.361-5.264-5.264c0-2.902,2.361-5.264,5.264-5.264
					c2.902,0,5.264,2.361,5.264,5.264C566.443,232.158,564.082,234.519,561.18,234.519z M561.18,224.991
					c-2.351,0-4.264,1.913-4.264,4.264s1.913,4.264,4.264,4.264s4.264-1.913,4.264-4.264S563.53,224.991,561.18,224.991z"/>
			</g>
			<g id="_x3C_Ïîâòîð_ïî_ñåòêå_x3E__00000160881685949070741820000013422881144626963618_">
				<path style="fill:#1C1C1C;" d="M581.177,234.519c-2.902,0-5.264-2.361-5.264-5.264c0-2.902,2.361-5.264,5.264-5.264
					s5.264,2.361,5.264,5.264C586.44,232.158,584.079,234.519,581.177,234.519z M581.177,224.991c-2.351,0-4.264,1.913-4.264,4.264
					s1.913,4.264,4.264,4.264c2.351,0,4.264-1.913,4.264-4.264S583.527,224.991,581.177,224.991z"/>
			</g>
			<g id="_x3C_Ïîâòîð_ïî_ñåòêå_x3E__00000149380972059226937970000014475323707170696867_">
				<path style="fill:#1C1C1C;" d="M601.174,234.519c-2.902,0-5.264-2.361-5.264-5.264c0-2.902,2.361-5.264,5.264-5.264
					c2.902,0,5.264,2.361,5.264,5.264C606.438,232.158,604.076,234.519,601.174,234.519z M601.174,224.991
					c-2.351,0-4.264,1.913-4.264,4.264s1.913,4.264,4.264,4.264c2.351,0,4.264-1.913,4.264-4.264S603.524,224.991,601.174,224.991z"
					/>
			</g>
			<g id="_x3C_Ïîâòîð_ïî_ñåòêå_x3E__00000016047128409514944300000011530701713033282975_">
				<path style="fill:#1C1C1C;" d="M621.171,234.519c-2.902,0-5.264-2.361-5.264-5.264c0-2.902,2.361-5.264,5.264-5.264
					c2.902,0,5.264,2.361,5.264,5.264C626.435,232.158,624.073,234.519,621.171,234.519z M621.171,224.991
					c-2.351,0-4.264,1.913-4.264,4.264s1.913,4.264,4.264,4.264s4.264-1.913,4.264-4.264S623.521,224.991,621.171,224.991z"/>
			</g>
			<g id="_x3C_Ïîâòîð_ïî_ñåòêå_x3E__00000181074501064035472510000004005971264648781234_">
				<path style="fill:#1C1C1C;" d="M641.168,234.519c-2.902,0-5.264-2.361-5.264-5.264c0-2.902,2.361-5.264,5.264-5.264
					c2.902,0,5.264,2.361,5.264,5.264C646.432,232.158,644.07,234.519,641.168,234.519z M641.168,224.991
					c-2.351,0-4.264,1.913-4.264,4.264s1.913,4.264,4.264,4.264c2.351,0,4.264-1.913,4.264-4.264S643.519,224.991,641.168,224.991z"
					/>
			</g>
			<g id="_x3C_Ïîâòîð_ïî_ñåòêå_x3E__00000070811091451768031750000005634503552683738810_">
				<path style="fill:#1C1C1C;" d="M661.165,234.519c-2.902,0-5.264-2.361-5.264-5.264c0-2.902,2.361-5.264,5.264-5.264
					c2.902,0,5.264,2.361,5.264,5.264C666.429,232.158,664.067,234.519,661.165,234.519z M661.165,224.991
					c-2.351,0-4.264,1.913-4.264,4.264s1.913,4.264,4.264,4.264c2.351,0,4.264-1.913,4.264-4.264S663.516,224.991,661.165,224.991z"
					/>
			</g>
			<g id="_x3C_Ïîâòîð_ïî_ñåòêå_x3E__00000084490850901591702710000008838519757715663285_">
				<path style="fill:#1C1C1C;" d="M681.162,234.519c-2.902,0-5.264-2.361-5.264-5.264c0-2.902,2.361-5.264,5.264-5.264
					s5.264,2.361,5.264,5.264C686.426,232.158,684.064,234.519,681.162,234.519z M681.162,224.991c-2.351,0-4.264,1.913-4.264,4.264
					s1.913,4.264,4.264,4.264c2.351,0,4.264-1.913,4.264-4.264S683.513,224.991,681.162,224.991z"/>
			</g>
		</g>
		<g>
			<circle style="fill:#FE00FE;" cx="560.751" cy="229.255" r="9.707"/>
			<circle style="fill:#1C1C1C;" cx="560.751" cy="229.255" r="9.707"/>
		</g>
		<g>
			<path style="fill:#FE00FE;" d="M682.642,278.085H560.473c-6.456,0-11.739-5.283-11.739-11.739l0,0
				c0-6.457,5.283-11.739,11.739-11.739h122.169c6.456,0,11.739,5.283,11.739,11.739l0,0
				C694.382,272.803,689.099,278.085,682.642,278.085z"/>
			<path style="fill:#1C1C1C;" d="M682.643,279.085H560.474c-7.024,0-12.739-5.715-12.739-12.738
				c0-7.024,5.715-12.739,12.739-12.739h122.169c7.024,0,12.739,5.715,12.739,12.738
				C695.382,273.37,689.667,279.085,682.643,279.085z M560.474,255.607c-5.922,0-10.739,4.817-10.739,10.738
				c0,5.922,4.817,10.739,10.739,10.739h122.169c5.922,0,10.739-4.817,10.739-10.738c0-5.922-4.817-10.739-10.739-10.739H560.474z"
				/>
		</g>
		<g>
			<g id="_x3C_Ïîâòîð_ïî_ñåòêå_x3E__00000024700611300495391920000010102829864879550882_">
				<path style="fill:#1C1C1C;" d="M561.18,271.61c-2.902,0-5.264-2.361-5.264-5.265c0-2.902,2.361-5.264,5.264-5.264
					c2.902,0,5.264,2.361,5.264,5.264C566.443,269.249,564.082,271.61,561.18,271.61z M561.18,262.082
					c-2.351,0-4.264,1.913-4.264,4.264c0,2.352,1.913,4.265,4.264,4.265s4.264-1.913,4.264-4.265
					C565.443,263.995,563.53,262.082,561.18,262.082z"/>
			</g>
			<g id="_x3C_Ïîâòîð_ïî_ñåòêå_x3E__00000054949362315750634770000010907225340207689646_">
				<path style="fill:#1C1C1C;" d="M581.177,271.61c-2.902,0-5.264-2.361-5.264-5.265c0-2.902,2.361-5.264,5.264-5.264
					s5.264,2.361,5.264,5.264C586.44,269.249,584.079,271.61,581.177,271.61z M581.177,262.082c-2.351,0-4.264,1.913-4.264,4.264
					c0,2.352,1.913,4.265,4.264,4.265c2.351,0,4.264-1.913,4.264-4.265C585.44,263.995,583.527,262.082,581.177,262.082z"/>
			</g>
			<g id="_x3C_Ïîâòîð_ïî_ñåòêå_x3E__00000082342263461174027780000016859628018976658613_">
				<path style="fill:#1C1C1C;" d="M601.174,271.61c-2.902,0-5.264-2.361-5.264-5.265c0-2.902,2.361-5.264,5.264-5.264
					c2.902,0,5.264,2.361,5.264,5.264C606.438,269.249,604.076,271.61,601.174,271.61z M601.174,262.082
					c-2.351,0-4.264,1.913-4.264,4.264c0,2.352,1.913,4.265,4.264,4.265c2.351,0,4.264-1.913,4.264-4.265
					C605.438,263.995,603.524,262.082,601.174,262.082z"/>
			</g>
			<g id="_x3C_Ïîâòîð_ïî_ñåòêå_x3E__00000091732713763862743560000015765701872712401792_">
				<path style="fill:#1C1C1C;" d="M621.171,271.61c-2.902,0-5.264-2.361-5.264-5.265c0-2.902,2.361-5.264,5.264-5.264
					c2.902,0,5.264,2.361,5.264,5.264C626.435,269.249,624.073,271.61,621.171,271.61z M621.171,262.082
					c-2.351,0-4.264,1.913-4.264,4.264c0,2.352,1.913,4.265,4.264,4.265s4.264-1.913,4.264-4.265
					C625.435,263.995,623.521,262.082,621.171,262.082z"/>
			</g>
			<g id="_x3C_Ïîâòîð_ïî_ñåòêå_x3E__00000129909793201893575990000010311264746863126668_">
				<path style="fill:#1C1C1C;" d="M641.168,271.61c-2.902,0-5.264-2.361-5.264-5.265c0-2.902,2.361-5.264,5.264-5.264
					c2.902,0,5.264,2.361,5.264,5.264C646.432,269.249,644.07,271.61,641.168,271.61z M641.168,262.082
					c-2.351,0-4.264,1.913-4.264,4.264c0,2.352,1.913,4.265,4.264,4.265c2.351,0,4.264-1.913,4.264-4.265
					C645.432,263.995,643.519,262.082,641.168,262.082z"/>
			</g>
			<g id="_x3C_Ïîâòîð_ïî_ñåòêå_x3E__00000101074502941158085800000002823911501229263751_">
				<path style="fill:#1C1C1C;" d="M661.165,271.61c-2.902,0-5.264-2.361-5.264-5.265c0-2.902,2.361-5.264,5.264-5.264
					c2.902,0,5.264,2.361,5.264,5.264C666.429,269.249,664.067,271.61,661.165,271.61z M661.165,262.082
					c-2.351,0-4.264,1.913-4.264,4.264c0,2.352,1.913,4.265,4.264,4.265c2.351,0,4.264-1.913,4.264-4.265
					C665.429,263.995,663.516,262.082,661.165,262.082z"/>
			</g>
			<g id="_x3C_Ïîâòîð_ïî_ñåòêå_x3E__00000018223957177544809440000007247072472164118971_">
				<path style="fill:#1C1C1C;" d="M681.162,271.61c-2.902,0-5.264-2.361-5.264-5.265c0-2.902,2.361-5.264,5.264-5.264
					s5.264,2.361,5.264,5.264C686.426,269.249,684.064,271.61,681.162,271.61z M681.162,262.082c-2.351,0-4.264,1.913-4.264,4.264
					c0,2.352,1.913,4.265,4.264,4.265c2.351,0,4.264-1.913,4.264-4.265C685.426,263.995,683.513,262.082,681.162,262.082z"/>
			</g>
		</g>
		<g>
			
				<ellipse transform="matrix(0.2307 -0.973 0.973 0.2307 203.9872 790.7024)" style="fill:#FE00FE;" cx="602.048" cy="266.346" rx="9.707" ry="9.707"/>
			
				<ellipse transform="matrix(0.2307 -0.973 0.973 0.2307 203.9872 790.7024)" style="fill:#1C1C1C;" cx="602.048" cy="266.346" rx="9.707" ry="9.707"/>
		</g>
		<g>
			<path style="fill:#FE00FE;" d="M682.642,315.176H560.473c-6.456,0-11.739-5.283-11.739-11.739v0
				c0-6.456,5.283-11.739,11.739-11.739h122.169c6.456,0,11.739,5.283,11.739,11.739v0
				C694.382,309.894,689.099,315.176,682.642,315.176z"/>
			<path style="fill:#1C1C1C;" d="M682.643,316.177H560.474c-7.024,0-12.739-5.715-12.739-12.739s5.715-12.739,12.739-12.739
				h122.169c7.024,0,12.739,5.715,12.739,12.739S689.667,316.177,682.643,316.177z M560.474,292.698
				c-5.922,0-10.739,4.817-10.739,10.739s4.817,10.739,10.739,10.739h122.169c5.922,0,10.739-4.817,10.739-10.739
				s-4.817-10.739-10.739-10.739H560.474z"/>
		</g>
		<g>
			<g id="_x3C_Ïîâòîð_ïî_ñåòêå_x3E__00000047057726828656699050000007640499237785834934_">
				<path style="fill:#1C1C1C;" d="M561.18,308.701c-2.902,0-5.264-2.361-5.264-5.264s2.361-5.264,5.264-5.264
					c2.902,0,5.264,2.361,5.264,5.264S564.082,308.701,561.18,308.701z M561.18,299.174c-2.351,0-4.264,1.913-4.264,4.264
					s1.913,4.264,4.264,4.264s4.264-1.913,4.264-4.264S563.53,299.174,561.18,299.174z"/>
			</g>
			<g id="_x3C_Ïîâòîð_ïî_ñåòêå_x3E__00000048503114435680595960000004385927702795609003_">
				<path style="fill:#1C1C1C;" d="M581.177,308.701c-2.902,0-5.264-2.361-5.264-5.264s2.361-5.264,5.264-5.264
					s5.264,2.361,5.264,5.264S584.079,308.701,581.177,308.701z M581.177,299.174c-2.351,0-4.264,1.913-4.264,4.264
					s1.913,4.264,4.264,4.264c2.351,0,4.264-1.913,4.264-4.264S583.527,299.174,581.177,299.174z"/>
			</g>
			<g id="_x3C_Ïîâòîð_ïî_ñåòêå_x3E__00000175283105173984635170000009010764608726195644_">
				<path style="fill:#1C1C1C;" d="M601.174,308.701c-2.902,0-5.264-2.361-5.264-5.264s2.361-5.264,5.264-5.264
					c2.902,0,5.264,2.361,5.264,5.264S604.076,308.701,601.174,308.701z M601.174,299.174c-2.351,0-4.264,1.913-4.264,4.264
					s1.913,4.264,4.264,4.264c2.351,0,4.264-1.913,4.264-4.264S603.524,299.174,601.174,299.174z"/>
			</g>
			<g id="_x3C_Ïîâòîð_ïî_ñåòêå_x3E__00000061431361035494322740000004497211821588238268_">
				<path style="fill:#1C1C1C;" d="M621.171,308.701c-2.902,0-5.264-2.361-5.264-5.264s2.361-5.264,5.264-5.264
					c2.902,0,5.264,2.361,5.264,5.264S624.073,308.701,621.171,308.701z M621.171,299.174c-2.351,0-4.264,1.913-4.264,4.264
					s1.913,4.264,4.264,4.264s4.264-1.913,4.264-4.264S623.521,299.174,621.171,299.174z"/>
			</g>
			<g id="_x3C_Ïîâòîð_ïî_ñåòêå_x3E__00000070088021601173388320000008372008861245122183_">
				<path style="fill:#1C1C1C;" d="M641.168,308.701c-2.902,0-5.264-2.361-5.264-5.264s2.361-5.264,5.264-5.264
					c2.902,0,5.264,2.361,5.264,5.264S644.07,308.701,641.168,308.701z M641.168,299.174c-2.351,0-4.264,1.913-4.264,4.264
					s1.913,4.264,4.264,4.264c2.351,0,4.264-1.913,4.264-4.264S643.519,299.174,641.168,299.174z"/>
			</g>
			<g id="_x3C_Ïîâòîð_ïî_ñåòêå_x3E__00000103945221783804631060000013854410550291008188_">
				<path style="fill:#1C1C1C;" d="M661.165,308.701c-2.902,0-5.264-2.361-5.264-5.264s2.361-5.264,5.264-5.264
					c2.902,0,5.264,2.361,5.264,5.264S664.067,308.701,661.165,308.701z M661.165,299.174c-2.351,0-4.264,1.913-4.264,4.264
					s1.913,4.264,4.264,4.264c2.351,0,4.264-1.913,4.264-4.264S663.516,299.174,661.165,299.174z"/>
			</g>
			<g id="_x3C_Ïîâòîð_ïî_ñåòêå_x3E__00000004519738759951855060000018204864258027858597_">
				<path style="fill:#1C1C1C;" d="M681.162,308.701c-2.902,0-5.264-2.361-5.264-5.264s2.361-5.264,5.264-5.264
					s5.264,2.361,5.264,5.264S684.064,308.701,681.162,308.701z M681.162,299.174c-2.351,0-4.264,1.913-4.264,4.264
					s1.913,4.264,4.264,4.264c2.351,0,4.264-1.913,4.264-4.264S683.513,299.174,681.162,299.174z"/>
			</g>
		</g>
		<g>
			
				<ellipse transform="matrix(0.7071 -0.7071 0.7071 0.7071 -26.6862 542.4484)" style="fill:#FE00FE;" cx="641.45" cy="303.437" rx="9.707" ry="9.707"/>
			
				<ellipse transform="matrix(0.7071 -0.7071 0.7071 0.7071 -26.6862 542.4484)" style="fill:#1C1C1C;" cx="641.45" cy="303.437" rx="9.707" ry="9.707"/>
		</g>
	</g>
	<g>
		<path style="fill:#1D1D1B;" d="M757.32,252.872c-0.458,0-0.845-0.341-0.902-0.795c-0.551-4.403-1.092-8.298-1.57-11.735
			c-0.71-5.114-1.271-9.154-1.533-12.424c-0.001-0.019-0.004-0.053-0.053-0.075c-0.05-0.02-0.08,0.002-0.094,0.013
			c-1.498,1.186-3.252,2.512-5.283,4.047c-2.051,1.551-4.376,3.309-6.973,5.328c-0.362,0.281-0.876,0.249-1.201-0.075
			c-0.324-0.324-0.356-0.839-0.075-1.201c2.014-2.59,3.768-4.91,5.315-6.956c1.542-2.038,2.872-3.797,4.061-5.299
			c0.011-0.014,0.035-0.044,0.013-0.095c-0.022-0.048-0.058-0.052-0.075-0.053c-3.269-0.262-7.305-0.823-12.416-1.532
			c-3.439-0.477-7.337-1.018-11.743-1.57c-0.455-0.057-0.796-0.444-0.796-0.902c0-0.458,0.341-0.845,0.795-0.902
			c4.403-0.551,8.298-1.092,11.736-1.57c5.114-0.71,9.154-1.271,12.424-1.533c0.019-0.001,0.053-0.004,0.075-0.053
			c0.022-0.05-0.001-0.08-0.013-0.095c-1.188-1.5-2.517-3.257-4.055-5.292c-1.549-2.048-3.305-4.37-5.321-6.963
			c-0.281-0.362-0.249-0.876,0.075-1.201c0.325-0.324,0.839-0.355,1.201-0.075c2.593,2.016,4.915,3.772,6.963,5.321
			c2.034,1.538,3.792,2.867,5.292,4.055c0.014,0.012,0.044,0.035,0.094,0.013c0.048-0.022,0.052-0.058,0.053-0.075
			c0.263-3.27,0.823-7.31,1.533-12.424c0.477-3.437,1.018-7.332,1.57-11.736c0.057-0.454,0.444-0.795,0.902-0.795l0,0
			c0.458,0,0.845,0.341,0.902,0.796c0.552,4.406,1.093,8.304,1.57,11.743c0.71,5.111,1.27,9.147,1.532,12.416
			c0.001,0.017,0.004,0.054,0.053,0.075c0.055,0.022,0.08-0.001,0.095-0.013c1.502-1.189,3.261-2.52,5.299-4.061
			c2.046-1.547,4.366-3.301,6.956-5.315c0.361-0.281,0.876-0.249,1.201,0.075c0.324,0.324,0.356,0.839,0.075,1.201
			c-2.02,2.598-3.777,4.922-5.329,6.973c-1.535,2.031-2.862,3.784-4.047,5.282c-0.011,0.015-0.035,0.044-0.013,0.095
			c0.021,0.049,0.056,0.052,0.075,0.053c3.27,0.263,7.309,0.823,12.423,1.533c3.437,0.477,7.332,1.018,11.737,1.57
			c0.454,0.057,0.795,0.444,0.795,0.902c0,0.458-0.341,0.845-0.796,0.902c-4.407,0.552-8.305,1.093-11.745,1.571
			c-5.11,0.709-9.146,1.27-12.414,1.531c-0.019,0.001-0.054,0.004-0.075,0.053c-0.022,0.051,0.002,0.08,0.013,0.095
			c1.187,1.499,2.516,3.255,4.053,5.289c1.549,2.049,3.305,4.371,5.322,6.966c0.281,0.362,0.249,0.876-0.075,1.201
			c-0.325,0.324-0.84,0.355-1.201,0.075c-2.594-2.017-4.917-3.773-6.966-5.322c-2.033-1.538-3.789-2.867-5.289-4.053
			c-0.014-0.012-0.045-0.033-0.095-0.013c-0.049,0.021-0.052,0.056-0.053,0.075c-0.262,3.269-0.823,7.305-1.532,12.416
			c-0.477,3.439-1.018,7.337-1.57,11.743C758.165,252.53,757.778,252.872,757.32,252.872z"/>
	</g>
	<g>
		<path style="fill:#1C1C1C;" d="M509.118,263.517H353.406c-2.572,0-4.657-2.085-4.657-4.657v-20.939
			c0-2.572,2.085-4.657,4.657-4.657h155.712c2.572,0,4.657,2.085,4.657,4.657v20.939
			C513.775,261.432,511.69,263.517,509.118,263.517z"/>
		<path style="fill:#FE00FE;" d="M502.691,257.668H346.979c-2.572,0-4.657-2.085-4.657-4.657v-20.939
			c0-2.572,2.085-4.657,4.657-4.657h155.712c2.572,0,4.657,2.085,4.657,4.657v20.939
			C507.347,255.584,505.262,257.668,502.691,257.668z"/>
		<path style="fill:#1C1C1C;" d="M502.69,258.668H346.979c-3.119,0-5.657-2.537-5.657-5.656v-20.939
			c0-3.119,2.538-5.656,5.657-5.656H502.69c3.119,0,5.657,2.538,5.657,5.656v20.939C508.348,256.131,505.81,258.668,502.69,258.668z
			 M346.979,228.416c-2.016,0-3.657,1.64-3.657,3.656v20.939c0,2.016,1.641,3.656,3.657,3.656H502.69
			c2.017,0,3.657-1.641,3.657-3.656v-20.939c0-2.016-1.641-3.656-3.657-3.656H346.979z"/>
		<g>
			<path style="fill:#1C1C1C;" d="M494.492,244.458H352.844c-0.986,0-1.785-0.799-1.785-1.785c0-0.986,0.799-1.785,1.785-1.785
				h141.648c0.986,0,1.785,0.799,1.785,1.785C496.278,243.659,495.478,244.458,494.492,244.458z"/>
		</g>
		<g>
			<path style="fill:#FE00FE;" d="M416.37,231.886l2.528,5.122c0.07,0.143,0.207,0.242,0.364,0.265l5.652,0.821
				c0.397,0.058,0.555,0.545,0.268,0.825l-4.09,3.987c-0.114,0.111-0.166,0.271-0.139,0.428l0.966,5.629
				c0.068,0.395-0.347,0.696-0.702,0.51l-5.055-2.658c-0.141-0.074-0.309-0.074-0.45,0l-5.056,2.658
				c-0.355,0.186-0.77-0.115-0.702-0.51l0.966-5.629c0.027-0.157-0.025-0.317-0.139-0.428l-4.09-3.987
				c-0.287-0.28-0.129-0.767,0.268-0.825l5.652-0.821c0.158-0.023,0.294-0.122,0.364-0.265l2.528-5.122
				C415.68,231.527,416.193,231.527,416.37,231.886z"/>
			<path style="fill:#1C1C1C;" d="M421.444,250.53c-0.236,0-0.473-0.057-0.692-0.172l-4.815-2.532l-4.815,2.532
				c-0.503,0.264-1.1,0.222-1.563-0.112c-0.46-0.334-0.687-0.89-0.591-1.451l0.92-5.363l-3.897-3.797
				c-0.407-0.399-0.551-0.982-0.374-1.523c0.176-0.54,0.635-0.927,1.197-1.009l5.384-0.782l2.407-4.878
				c0.252-0.511,0.762-0.827,1.33-0.827c0.001,0,0.001,0,0.002,0c0.568,0.001,1.077,0.317,1.328,0.827l2.408,4.878l5.384,0.782
				c0.564,0.082,1.021,0.469,1.197,1.01c0.176,0.542,0.032,1.124-0.375,1.521l-3.896,3.797l0.919,5.362
				c0.097,0.56-0.129,1.116-0.589,1.451C422.055,250.434,421.751,250.53,421.444,250.53z M420.934,249.132c0,0,0,0.001,0,0.001
				V249.132z M408.138,238.933l3.342,3.256c0.351,0.344,0.51,0.835,0.426,1.316l-0.789,4.596l4.13-2.172
				c0.434-0.227,0.946-0.226,1.378-0.002l4.133,2.173l-0.788-4.599c-0.084-0.48,0.076-0.973,0.428-1.314l3.339-3.255l-4.616-0.671
				c-0.484-0.07-0.902-0.375-1.118-0.814l-2.065-4.182l-2.064,4.183c-0.215,0.437-0.632,0.741-1.116,0.812L408.138,238.933z
				 M421.792,243.62l-0.001,0.002C421.791,243.621,421.792,243.621,421.792,243.62z M409.935,243.165c0,0-0.001,0.001-0.001,0.002
				L409.935,243.165z M421.939,243.162v0.003C421.939,243.164,421.939,243.163,421.939,243.162z M415.473,232.328
				c0.001,0,0.001,0.001,0.001,0.002L415.473,232.328z"/>
		</g>
	</g>
</g>
</svg>
